<svg xmlns="http://www.w3.org/2000/svg" xml:space="preserve" version="1.1" style="shape-rendering:geometricPrecision; text-rendering:geometricPrecision; image-rendering:optimizeQuality; fill-rule:evenodd; clip-rule:evenodd"
         viewBox="0 0 2900 1632" xmlns:xlink="http://www.w3.org/1999/xlink">
        <defs>
            <linearGradient id="r-logo-letter" gradientUnits="userSpaceOnUse" x1="1833" y1="752" x2="1860" y2="831">
                <stop offset="0" style="stop-color:#3b3b3b"/>
                <stop offset="1" style="stop-color:#2a2a2a"/>
            </linearGradient>
            <linearGradient id="r-logo-circle" gradientUnits="userSpaceOnUse" x1="1847" y1="780" x2="1855" y2="837">
                <stop offset="0" style="stop-color:#bebebe"/>
                <stop offset="1" style="stop-color:#828282"/>
            </linearGradient>
            <filter id="shadow-blur-small"  x="0" y="-20%" width="120%" height="120%">
                <feGaussianBlur in="SourceGraphic" stdDeviation="5" />
            </filter>
            <filter id="shadow-blur-big" x="-300%" y="-300%" width="700%" height="700%">
                <feGaussianBlur in="SourceGraphic" stdDeviation="25 20" />
            </filter>
        </defs>
        <g class="back">
            <polygon points="2900,1631 0,1631 0,0 2900,0 "/>
            <path d="M14 0l1 0c-5,16 -10,33 -15,49l0 -4c4,-15 9,-30 14,-45zm206 0l1 0c0,3 -1,5 -1,7 -5,33 -10,66 -13,98 -3,33 -5,66 -6,98 19,-2 38,-4 58,-6 19,-3 38,-5 57,-8 19,-3 38,-6 57,-9 19,-4 38,-7 56,-11 -2,-29 -5,-58 -6,-88 -1,-27 -2,-54 -1,-81l1 0c0,27 0,54 1,81 2,30 4,59 7,88 18,-4 37,-7 55,-11 19,-4 37,-9 55,-13 18,-4 36,-9 54,-14 18,-4 36,-9 54,-14 -6,-26 -12,-53 -17,-79 -2,-13 -5,-25 -7,-38l2 0c2,13 4,25 6,38 5,26 11,52 17,79 18,-5 35,-11 53,-16 17,-5 34,-10 52,-16 17,-5 34,-11 51,-17 17,-6 34,-12 51,-18 -6,-16 -13,-33 -18,-50l1 0c6,17 12,33 18,50 17,-6 33,-12 50,-19 16,-6 33,-12 49,-19 10,-4 20,-8 30,-12l5 0c-12,5 -23,9 -34,14 -16,6 -33,13 -49,19 -17,6 -34,12 -50,18 8,24 17,47 27,70 9,23 19,45 29,68 10,22 20,44 31,67 11,21 21,43 33,65 18,-9 36,-17 55,-26 18,-8 36,-17 54,-26 18,-8 36,-17 54,-26 17,-9 35,-18 53,-27 -12,-19 -24,-39 -36,-59 -12,-20 -24,-40 -35,-60 -12,-20 -23,-41 -35,-61 -6,-12 -13,-24 -19,-36l1 0c7,12 13,23 19,35 12,21 23,41 35,62 11,20 23,40 35,60 12,19 24,39 36,59 8,-4 16,-9 25,-13 8,-4 16,-8 24,-13 8,-4 16,-8 25,-13 8,-4 16,-8 24,-13 9,-5 18,-10 27,-15 9,-5 18,-9 27,-14 9,-5 18,-10 27,-15 9,-5 17,-10 26,-15 -13,-18 -26,-36 -39,-54 -12,-17 -24,-34 -37,-51l2 0c12,17 24,34 36,50 13,19 26,37 39,55 16,-10 32,-19 48,-28 16,-9 31,-18 47,-28 15,-9 30,-18 45,-27 12,-7 24,-15 35,-22l3 0c-12,8 -25,15 -37,23 -15,9 -30,18 -46,28 -15,9 -30,18 -46,27 -16,9 -32,19 -48,28 13,18 26,35 39,53 13,18 26,35 39,53 12,17 25,34 38,51 13,17 26,34 39,51 16,-10 33,-20 49,-30 17,-11 33,-21 49,-31 16,-10 31,-20 47,-30 16,-10 31,-20 46,-30 -13,-16 -26,-33 -39,-49 -14,-16 -27,-33 -40,-49 -14,-16 -28,-33 -41,-49 -13,-16 -26,-31 -38,-46l1 0c13,15 25,30 38,45 13,16 27,33 41,49 13,17 26,33 40,50 13,16 26,32 39,48 16,-10 31,-20 46,-29 15,-10 30,-20 44,-30 15,-10 30,-20 44,-29 14,-10 29,-20 43,-30 -14,-15 -27,-31 -41,-47 -8,-9 -16,-18 -24,-27l1 0c8,9 16,18 24,26 14,16 27,32 41,48 14,-10 28,-20 42,-29 14,-10 28,-20 42,-30 7,-5 15,-10 22,-15l2 0c-7,6 -15,11 -23,17 -14,9 -28,19 -42,29 -14,9 -28,19 -42,29 13,16 27,31 40,47 13,16 26,32 40,48 12,15 25,31 38,47 13,16 25,32 38,48 14,-10 29,-20 43,-30 15,-9 29,-19 43,-29 14,-9 29,-19 43,-28 14,-10 28,-20 42,-29 -13,-16 -26,-32 -39,-48 -13,-16 -26,-32 -39,-48 -14,-16 -27,-32 -41,-48 -2,-1 -3,-3 -5,-5l2 0c1,2 2,3 4,5 14,15 27,31 41,47 13,16 26,32 39,48 13,16 26,32 39,48 14,-9 28,-19 42,-28 14,-10 27,-19 41,-29 14,-9 28,-18 41,-28 14,-9 28,-18 42,-28 -10,-12 -19,-23 -28,-35l1 0c9,12 18,23 27,35 14,-10 28,-19 41,-28l10 -7 2 0 -11 8c-13,9 -27,18 -41,28 9,11 18,23 27,35 9,12 18,23 26,35 9,12 17,24 26,36 8,12 16,24 24,37 4,5 8,10 11,16 4,5 7,11 11,16 3,5 6,11 10,16 3,5 7,11 10,16 14,-8 28,-17 42,-25 14,-8 27,-17 41,-25 14,-8 28,-16 42,-24 14,-8 28,-16 42,-24 -4,-6 -7,-12 -11,-18 -3,-5 -6,-11 -10,-17 -3,-6 -7,-11 -11,-17 -3,-6 -7,-12 -10,-17 -9,-13 -17,-26 -26,-39 -8,-12 -16,-25 -25,-37l1 0c9,12 17,24 25,36 9,13 17,26 26,39 3,6 7,12 10,17 4,6 7,12 11,18 3,5 7,11 10,17 4,6 7,11 10,17 14,-8 28,-16 42,-24 14,-7 28,-15 42,-23 14,-8 28,-15 42,-23 13,-7 25,-13 38,-20l0 2c-12,6 -25,13 -37,20 -14,7 -28,15 -42,22 -14,8 -28,16 -42,24 -14,7 -28,15 -42,23 11,19 21,38 32,57 10,18 19,37 28,56 10,19 19,37 27,56 9,19 17,38 24,56 14,-6 28,-12 41,-19 4,-1 8,-3 11,-4l0 1c-3,2 -7,3 -10,5 -14,6 -27,12 -41,19 8,18 15,37 22,56 7,19 14,38 20,57 3,9 6,18 9,27l0 3c-3,-10 -6,-20 -10,-30 -6,-19 -13,-37 -20,-56 -7,-19 -14,-38 -22,-57 -14,7 -27,13 -41,20 -13,6 -27,13 -40,20 -14,7 -27,14 -41,21 -13,7 -27,14 -40,22 8,17 16,35 24,52 8,18 15,35 23,53 7,17 14,35 21,52 7,18 14,36 20,53 12,-6 25,-12 37,-17 13,-6 26,-12 38,-17 13,-6 25,-11 38,-16 4,-2 9,-4 13,-6l0 2c-4,2 -8,3 -13,5 -12,5 -25,11 -37,16 -13,6 -26,11 -38,17 -13,6 -25,12 -38,18 7,17 13,35 19,53 5,18 11,36 16,54 6,18 11,36 16,54 4,18 9,36 13,55 11,-5 22,-9 33,-14 10,-4 19,-7 29,-11l0 2c-9,3 -19,7 -29,11 -10,4 -21,8 -32,13 4,18 8,37 12,55 4,19 7,38 10,56 4,19 7,38 9,57 3,19 6,38 8,57 7,-2 15,-5 22,-8l0 2c-7,2 -15,5 -22,8 2,19 4,39 5,58 2,20 3,39 4,59 1,20 1,40 1,60 1,20 0,41 0,61 4,-1 8,-2 12,-4l0 2c-4,1 -8,2 -12,3 -1,21 -2,42 -3,63 -2,21 -4,42 -6,63 -2,21 -5,43 -8,64 -3,22 -7,44 -11,66 -1,0 -1,0 -1,0l0 0c5,-22 8,-44 12,-66 3,-21 6,-43 8,-64 2,-21 4,-42 5,-63 2,-21 3,-42 3,-62 -5,1 -11,3 -17,5 -6,3 -12,5 -18,7 -5,2 -11,5 -17,7 -6,3 -12,6 -18,8 3,20 5,39 8,58 2,19 4,39 5,58 2,20 3,40 4,60 0,20 1,40 1,61 0,0 0,0 0,0l0 0c0,-21 -1,-41 -2,-61 0,-20 -2,-40 -3,-60 -2,-19 -4,-39 -6,-58 -2,-19 -4,-38 -7,-57 -6,2 -12,5 -18,8 -6,3 -11,7 -17,10 -6,3 -12,6 -18,10 -5,3 -11,7 -17,11 6,17 12,34 17,51 6,17 12,35 17,52 5,18 10,35 15,53 5,18 10,36 14,54 0,0 0,0 0,0l0 0c-4,-18 -9,-36 -14,-54 -5,-17 -10,-35 -15,-53 -6,-17 -11,-34 -17,-52 -6,-17 -11,-34 -17,-51 -6,3 -12,7 -18,11 -6,4 -11,8 -17,12 -6,4 -11,8 -17,13 -6,4 -12,9 -17,13 9,15 18,30 27,44 10,15 19,30 28,45 9,15 18,30 26,45 7,10 13,20 19,30l-1 0c-6,-10 -12,-20 -18,-30 -9,-15 -17,-30 -27,-45 -9,-15 -18,-30 -27,-44 -9,-15 -18,-30 -28,-45 -5,5 -11,10 -16,14 -6,5 -12,10 -17,15 -6,5 -11,10 -17,15 -5,5 -10,11 -16,16 13,12 25,24 38,36 12,12 25,24 38,35 12,11 24,22 36,33l-1 0c-12,-10 -24,-21 -36,-33 -12,-11 -25,-23 -38,-35 -12,-12 -25,-24 -37,-36 -3,3 -6,6 -9,9 -3,3 -5,6 -8,9 -3,3 -6,6 -9,9 -3,3 -5,6 -8,9 -3,3 -5,6 -7,9 -3,2 -5,5 -8,8 -2,3 -4,6 -6,8 -3,3 -5,6 -7,9 15,9 31,17 47,26 6,3 11,6 16,8l-1 0c-5,-2 -10,-5 -15,-8 -16,-8 -32,-17 -48,-26 -4,6 -9,12 -14,18 -4,6 -8,11 -11,16l-2 0c4,-5 8,-11 12,-16 5,-6 9,-12 14,-18 -15,-9 -31,-18 -47,-28 -15,-9 -30,-18 -46,-28 -15,-10 -30,-19 -46,-29 -15,-10 -30,-21 -45,-31 -8,9 -15,18 -23,27 -8,9 -15,18 -22,27 -7,9 -15,18 -21,27 -8,10 -14,19 -21,28 18,8 36,16 54,23 15,6 31,12 47,18l-2 0c-15,-5 -31,-11 -46,-17 -18,-8 -36,-15 -54,-23 -6,9 -13,19 -19,28 -3,4 -6,8 -8,12l-2 0c3,-4 6,-8 9,-12 6,-10 13,-19 19,-29 -18,-7 -35,-16 -53,-24 -18,-8 -35,-17 -53,-26 -17,-9 -35,-18 -52,-28 -17,-9 -34,-19 -52,-29 -9,12 -18,23 -28,35 -9,12 -18,24 -27,35 -9,12 -18,24 -27,37 -9,12 -17,24 -26,36 5,2 9,4 13,5l-3 0c-3,-1 -7,-3 -10,-4 -1,1 -2,3 -3,4l-2 0c1,-1 2,-3 3,-5 -20,-8 -40,-16 -60,-25 -19,-9 -39,-18 -59,-27 -20,-10 -39,-20 -59,-30 -19,-10 -39,-21 -58,-32 -12,14 -23,28 -34,42 -12,15 -23,29 -34,43 -9,12 -18,23 -26,34l-2 0c9,-11 17,-23 26,-34 12,-15 23,-29 34,-43 12,-14 23,-28 35,-42 -20,-11 -39,-23 -58,-34 -19,-12 -38,-24 -57,-36 -19,-13 -38,-25 -57,-38 -19,-14 -38,-27 -56,-41 -15,15 -29,29 -44,44 -14,15 -29,30 -43,45 -15,15 -29,30 -44,46 -14,15 -29,31 -43,47 22,13 44,27 66,39 22,13 44,25 67,37 6,3 13,7 20,10l-3 0c-6,-3 -12,-6 -18,-9 -23,-12 -45,-24 -67,-37 -22,-12 -44,-26 -66,-39 -14,16 -29,32 -43,48 -11,12 -22,25 -33,37l-2 0c11,-13 22,-25 34,-38 14,-16 28,-32 43,-48 -22,-14 -44,-28 -65,-43 -22,-15 -44,-30 -65,-46 -21,-16 -42,-33 -63,-50 -21,-17 -42,-35 -63,-53 -18,15 -36,31 -53,46 -19,16 -37,32 -55,48 -18,16 -36,32 -54,48 -18,17 -37,33 -55,50 24,19 49,38 74,56 14,11 28,21 42,30l-3 0c-13,-9 -27,-19 -40,-29 -25,-18 -50,-37 -74,-56 -19,17 -37,34 -55,50 -13,12 -25,24 -37,35l-4 0c13,-12 26,-24 39,-36 18,-17 37,-34 55,-51 -7,-6 -15,-12 -22,-18 -7,-6 -15,-12 -22,-19 -7,-6 -15,-13 -22,-19 -7,-7 -14,-13 -22,-20 -16,-15 -32,-30 -48,-46 -16,-16 -31,-31 -46,-48 -15,-16 -30,-32 -45,-49 -14,-16 -28,-33 -42,-50 -22,14 -44,28 -66,43 -23,14 -45,29 -67,43 -23,15 -46,30 -68,44 -23,15 -46,30 -69,45 16,19 33,39 50,58 16,19 34,37 52,56 17,18 36,36 54,54 5,4 10,9 15,13l-3 0c-4,-4 -9,-8 -13,-12 -19,-18 -37,-36 -55,-54 -18,-18 -35,-37 -52,-56 -17,-19 -33,-39 -49,-58 -24,15 -47,30 -70,44 -23,15 -46,30 -69,45 -24,15 -47,30 -70,45 -24,15 -47,30 -70,44 0,0 0,0 -1,1l-2 1 -6 0 6 -3c0,0 0,0 1,-1 23,-15 46,-29 70,-44 23,-15 46,-30 70,-45 23,-15 46,-30 70,-45 23,-14 46,-29 69,-44 -23,-29 -45,-58 -66,-88 -21,-30 -41,-60 -60,-91 -19,-32 -37,-63 -53,-95 -17,-33 -33,-66 -47,-99 -23,9 -46,18 -69,27l0 -3c23,-9 45,-17 68,-26 -14,-33 -28,-67 -40,-101 -10,-30 -19,-59 -28,-89l0 -6c9,31 19,63 30,94 12,34 25,68 40,101 25,-9 50,-19 75,-29 24,-10 49,-20 73,-31 24,-10 49,-20 73,-31 24,-10 47,-20 71,-31 -14,-28 -27,-57 -39,-86 -13,-30 -24,-59 -34,-89 -11,-30 -21,-60 -29,-91 -9,-31 -17,-62 -24,-93 -23,6 -46,12 -69,18 -23,6 -47,11 -70,16 -24,5 -47,10 -71,15 -8,2 -17,4 -26,5l0 -2c9,-2 17,-3 26,-5 23,-5 47,-10 71,-15 23,-5 46,-11 70,-16 23,-6 45,-12 68,-18 -7,-31 -13,-63 -18,-94 -5,-32 -9,-64 -12,-96 -3,-32 -5,-65 -6,-97 -1,-32 -1,-65 0,-97 -19,2 -39,3 -59,5 -19,1 -39,2 -59,3 -19,1 -39,1 -59,1 -7,0 -15,0 -22,0l0 -2c8,0 15,0 23,0 19,0 39,-1 59,-2 19,0 39,-1 59,-3 19,-1 39,-3 58,-5 1,-32 4,-65 7,-98 3,-32 7,-65 13,-98 0,-2 1,-4 1,-7zm2655 0l1 0c3,5 6,9 8,14 4,6 7,12 11,18 2,4 3,7 5,10l0 2c-2,-4 -4,-7 -6,-11 -4,-6 -7,-13 -11,-19 -2,-5 -5,-9 -8,-14zm25 1554l0 1c-5,16 -11,31 -17,47 0,0 0,0 0,0l0 0 0 0c6,-16 12,-32 17,-48zm0 59l0 0 0 0c-1,3 -3,5 -4,8 -2,3 -3,5 -5,8l-1 2 0 0 1 -2c2,-3 3,-5 4,-8 2,-3 3,-5 5,-8l0 0zm-28 18l0 0c1,-1 1,-2 2,-4 1,-2 2,-5 3,-8 1,-2 2,-5 3,-7 1,-3 2,-6 3,-8 0,0 0,0 0,0 -1,2 -2,5 -3,8 -1,2 -2,5 -3,7 -1,3 -2,6 -3,8 -1,2 -1,3 -2,4zm-18 0l0 0 1 -1c0,-2 1,-5 1,-7 1,-3 1,-5 2,-8 0,-3 1,-5 1,-8 0,0 0,0 0,0 0,3 -1,5 -1,8 -1,2 -1,5 -2,8 0,2 -1,5 -1,7l-1 1zm-19 0l0 0 0 -1c0,-2 0,-5 0,-7 0,-2 0,-5 0,-7 0,0 0,0 0,0 0,2 0,5 0,7 0,2 0,5 0,7l0 1zm-24 0l0 0 -1 -2c0,0 0,0 0,0l1 2zm-2611 -1426c20,-1 39,-4 59,-6 19,-2 38,-5 57,-8 19,-3 38,-6 57,-9 19,-4 38,-7 57,-11 3,29 6,58 11,87 4,29 10,57 15,86 6,28 13,56 20,84 8,27 16,55 24,82 -21,7 -42,14 -64,21 -21,7 -43,14 -65,21 -22,6 -44,13 -66,19 -23,7 -46,13 -68,19 -7,-32 -13,-63 -18,-95 -5,-31 -9,-63 -12,-95 -3,-32 -5,-65 -6,-97 -2,-33 -2,-65 -1,-98zm231 -34c18,-4 37,-8 56,-12 18,-4 36,-8 54,-12 19,-5 37,-9 55,-14 18,-5 35,-9 53,-14 6,26 13,51 20,77 7,26 15,51 23,76 9,25 17,50 26,75 9,24 19,48 29,73 -20,7 -40,15 -60,23 -20,8 -40,15 -60,23 -21,7 -42,15 -62,22 -21,7 -42,15 -63,22 -9,-28 -17,-55 -24,-83 -8,-28 -14,-56 -20,-84 -6,-28 -11,-57 -16,-85 -4,-29 -8,-58 -11,-87zm219 -53c18,-5 36,-10 53,-15 18,-5 35,-11 52,-16 17,-6 35,-12 52,-17 17,-6 33,-12 50,-18 9,23 18,46 28,69 9,23 19,46 29,68 10,23 20,45 31,67 10,22 21,44 32,65 -18,9 -37,17 -56,25 -19,9 -37,17 -56,25 -20,8 -39,16 -58,24 -20,8 -39,16 -59,24 -10,-24 -19,-48 -28,-73 -9,-25 -18,-49 -26,-74 -9,-26 -16,-51 -23,-76 -8,-26 -14,-52 -21,-78zm-413 474c23,-6 46,-12 68,-19 22,-6 44,-13 67,-19 21,-7 43,-14 65,-21 21,-7 43,-14 64,-21 9,27 18,54 28,81 10,26 21,53 32,79 11,26 23,52 35,77 12,25 25,50 39,75 -22,11 -44,21 -66,32 -22,11 -45,21 -67,32 -23,10 -46,21 -69,31 -23,11 -46,21 -69,32 -14,-29 -27,-58 -40,-87 -12,-29 -23,-59 -34,-89 -10,-30 -20,-60 -29,-90 -9,-31 -17,-62 -24,-93zm265 -80c22,-8 43,-15 63,-22 21,-8 42,-15 62,-23 21,-7 41,-15 61,-22 20,-8 40,-16 60,-24 10,24 20,48 31,71 11,24 22,47 34,70 11,23 23,46 36,68 12,23 25,45 38,67 -20,11 -41,21 -61,31 -21,11 -41,22 -62,32 -21,11 -42,21 -63,32 -22,10 -43,21 -65,31 -13,-24 -26,-49 -39,-75 -12,-25 -24,-51 -35,-77 -11,-26 -22,-52 -31,-79 -10,-26 -20,-53 -29,-80zm247 -91c20,-8 39,-16 59,-24 19,-8 38,-16 57,-24 19,-9 38,-17 57,-25 19,-8 37,-17 56,-25 11,21 22,42 34,64 11,21 23,41 35,62 12,21 24,41 37,61 12,20 25,40 38,60 -19,11 -38,21 -57,32 -20,10 -39,21 -58,31 -20,11 -39,21 -59,32 -20,10 -40,21 -60,31 -13,-22 -26,-44 -38,-66 -12,-23 -24,-46 -36,-68 -12,-23 -23,-47 -34,-70 -11,-24 -21,-47 -31,-71zm230 -99c19,-8 37,-17 55,-25 18,-9 37,-17 55,-26 18,-9 36,-18 53,-27 18,-8 36,-17 54,-26 11,19 24,38 36,58 12,19 24,38 37,56 12,19 25,38 37,56 13,19 25,37 38,55 -18,11 -36,21 -54,32 -18,10 -37,21 -55,31 -19,11 -37,22 -56,32 -18,11 -37,21 -56,31 -13,-19 -25,-39 -38,-59 -12,-21 -25,-41 -36,-62 -13,-20 -24,-41 -36,-62 -11,-21 -23,-42 -34,-64zm218 -105c8,-4 16,-8 24,-13 9,-4 17,-8 25,-13 8,-4 16,-8 24,-12 9,-5 17,-9 25,-13 9,-5 18,-10 27,-15 9,-5 18,-10 27,-15 9,-5 18,-10 27,-15 8,-5 17,-10 26,-15 13,18 26,36 39,54 13,17 25,35 38,52 13,17 26,35 39,52 13,17 26,34 39,51 -9,6 -18,11 -27,17 -9,5 -18,11 -28,17 -9,5 -18,11 -27,16 -10,6 -19,12 -29,17 -8,5 -16,10 -25,15 -8,6 -16,11 -25,16 -8,5 -17,9 -25,14 -9,5 -17,10 -25,15 -13,-18 -26,-36 -38,-54 -13,-19 -26,-38 -38,-56 -12,-19 -25,-38 -37,-57 -12,-19 -24,-39 -36,-58zm-1126 859c25,-10 50,-20 75,-30 24,-10 49,-20 73,-31 24,-10 49,-20 73,-31 23,-10 47,-20 71,-31 14,29 29,57 44,84 15,28 32,55 49,82 17,26 35,52 53,78 18,26 38,51 58,76 -23,14 -45,29 -67,43 -22,14 -44,29 -67,43 -22,15 -45,30 -68,44 -23,15 -46,30 -68,45 -23,-29 -45,-58 -66,-88 -21,-30 -41,-60 -60,-91 -19,-31 -37,-63 -54,-95 -16,-32 -32,-65 -46,-98zm294 -124c23,-10 46,-20 69,-31 23,-10 46,-21 69,-32 22,-10 44,-21 67,-31 22,-11 44,-21 66,-32 13,25 27,49 42,73 14,24 29,48 45,71 15,23 31,46 48,69 16,23 33,45 51,67 -21,14 -41,27 -62,41 -21,13 -42,27 -63,41 -21,14 -43,28 -64,42 -22,14 -43,28 -65,42 -20,-25 -39,-50 -57,-76 -19,-25 -37,-52 -54,-78 -17,-27 -33,-54 -48,-82 -16,-27 -31,-55 -44,-84zm272 -127c22,-10 43,-21 64,-32 22,-10 43,-21 64,-31 20,-11 41,-21 62,-32 20,-10 40,-21 61,-32 13,22 26,44 40,65 14,22 28,43 42,64 15,20 30,41 45,61 15,21 30,41 46,61 -19,12 -38,25 -58,38 -19,13 -39,26 -59,39 -20,13 -40,26 -60,39 -20,13 -40,27 -61,40 -17,-22 -34,-44 -51,-67 -16,-22 -32,-45 -48,-69 -16,-23 -31,-47 -45,-71 -15,-24 -29,-48 -42,-73zm252 -127c20,-11 40,-21 60,-32 19,-10 39,-21 59,-31 19,-11 38,-21 58,-32 19,-10 38,-21 57,-31 12,19 26,39 39,58 13,19 27,39 40,58 14,19 28,37 42,56 14,19 28,37 43,55 -19,13 -37,25 -55,37 -19,12 -37,24 -56,37 -19,12 -37,25 -56,37 -19,13 -38,25 -57,38 -16,-20 -32,-40 -47,-60 -15,-21 -30,-41 -44,-62 -15,-21 -29,-42 -43,-63 -13,-22 -27,-44 -40,-65zm235 -127c19,-11 37,-21 56,-32 19,-10 37,-21 56,-31 18,-11 36,-21 55,-32 18,-10 36,-21 54,-32 13,18 26,36 39,54 13,18 26,36 39,53 13,18 26,35 40,53 13,17 26,34 40,52 -18,11 -35,23 -53,35 -18,12 -36,24 -54,36 -18,12 -36,23 -54,35 -18,12 -36,25 -54,37 -14,-19 -29,-37 -43,-56 -14,-18 -28,-37 -41,-56 -14,-19 -28,-38 -41,-58 -13,-19 -26,-39 -39,-58zm222 -127c9,-5 17,-10 26,-15 8,-5 17,-10 25,-15 8,-5 17,-10 25,-15 9,-5 17,-10 25,-15 10,-6 19,-12 28,-17 10,-6 19,-12 28,-17 9,-6 19,-12 28,-17 9,-6 18,-11 27,-17 12,17 25,34 38,51 13,17 26,33 39,50 12,17 25,33 38,50 13,16 26,33 39,49 -9,6 -18,12 -27,18 -9,6 -18,12 -27,18 -9,6 -18,12 -27,18 -9,6 -19,13 -28,19 -8,5 -16,11 -25,16 -8,6 -16,11 -24,17 -9,5 -17,11 -25,16 -8,6 -17,11 -25,17 -13,-17 -27,-35 -40,-52 -14,-17 -27,-35 -40,-52 -13,-18 -26,-36 -39,-53 -13,-18 -26,-36 -39,-54zm213 -128c16,-11 33,-21 49,-31 17,-11 33,-21 49,-31 16,-10 31,-20 47,-30 16,-10 31,-20 46,-30 13,16 26,32 39,48 13,16 26,33 39,49 13,16 25,32 38,48 13,16 25,32 38,48 -15,10 -31,21 -46,31 -16,11 -32,21 -48,32 -16,11 -32,21 -48,32 -16,11 -32,22 -49,33 -13,-16 -26,-33 -39,-49 -13,-17 -25,-33 -38,-50 -13,-16 -26,-33 -39,-50 -13,-17 -26,-34 -38,-50zm192 -123c16,-10 31,-19 46,-29 15,-10 29,-20 44,-30 15,-10 29,-19 44,-29 14,-10 29,-20 43,-30 13,16 27,32 40,48 13,16 27,31 40,47 12,16 25,32 38,48 13,16 25,31 38,47 -15,10 -29,20 -44,30 -15,10 -29,20 -44,30 -15,10 -30,20 -45,30 -15,11 -31,21 -46,31 -12,-16 -25,-32 -38,-48 -12,-16 -25,-32 -38,-48 -13,-16 -26,-32 -39,-48 -13,-16 -26,-33 -39,-49zm-1182 1081c22,-14 44,-29 65,-43 22,-14 43,-28 64,-42 21,-13 42,-27 63,-41 21,-13 42,-27 62,-41 12,16 25,31 38,46 12,14 25,29 38,44 13,14 27,28 40,43 14,14 28,28 42,41 6,6 12,13 18,18 6,6 13,12 19,18 6,6 13,12 19,18 6,5 12,11 19,17 -18,15 -36,30 -54,46 -18,16 -36,32 -54,47 -18,16 -37,33 -55,49 -18,16 -36,33 -54,49 -8,-6 -15,-12 -23,-18 -7,-6 -14,-13 -22,-19 -7,-6 -14,-13 -22,-19 -7,-7 -14,-13 -21,-20 -17,-15 -33,-30 -49,-46 -15,-16 -31,-31 -46,-48 -15,-16 -30,-32 -44,-49 -15,-16 -29,-33 -43,-50zm256 -167c20,-14 40,-27 60,-40 20,-14 40,-27 60,-40 20,-13 40,-26 59,-39 20,-12 39,-25 58,-38 11,14 22,27 34,41 11,13 22,27 34,40 12,13 23,26 35,39 12,13 24,26 37,39 5,6 10,11 16,17 5,5 11,11 16,16 6,6 11,11 17,17 5,5 11,10 16,16 -17,14 -35,28 -52,42 -17,15 -35,29 -52,44 -18,15 -35,29 -53,44 -18,15 -35,30 -53,46 -6,-6 -13,-12 -19,-17 -6,-6 -13,-12 -19,-18 -6,-6 -12,-12 -19,-18 -6,-5 -12,-12 -18,-18 -14,-13 -28,-27 -41,-41 -14,-15 -27,-29 -40,-43 -14,-15 -27,-30 -39,-44 -13,-15 -25,-30 -37,-45zm239 -158c19,-12 38,-25 57,-38 19,-12 37,-25 56,-37 19,-12 37,-25 56,-37 18,-12 36,-24 55,-36 10,12 20,25 30,37 11,13 21,25 31,38 11,12 21,24 32,36 11,13 22,25 33,37 4,5 9,10 14,16 5,5 10,10 15,15 4,6 9,11 14,16 5,5 10,10 15,15 -17,13 -34,26 -51,40 -17,13 -34,27 -50,40 -17,14 -34,27 -51,41 -18,14 -35,28 -52,42 -5,-6 -11,-11 -16,-16 -6,-6 -11,-11 -17,-16 -5,-6 -10,-11 -16,-17 -5,-6 -11,-11 -16,-17 -12,-13 -24,-26 -36,-39 -12,-13 -24,-26 -36,-39 -11,-13 -23,-27 -34,-40 -11,-14 -22,-27 -33,-41zm225 -149c18,-12 36,-24 54,-36 18,-12 36,-24 54,-36 18,-12 36,-24 54,-36 17,-12 35,-23 53,-35 9,12 19,23 28,35 10,12 19,24 29,35 10,12 19,24 29,35 10,12 20,24 30,35 4,5 8,10 13,16 4,5 8,10 13,15 4,5 8,10 13,15 4,4 8,9 13,14 -17,13 -33,25 -50,38 -16,12 -33,25 -49,38 -17,13 -34,25 -50,38 -17,13 -34,26 -50,39 -5,-5 -10,-10 -15,-15 -5,-5 -9,-10 -14,-16 -5,-5 -10,-10 -15,-15 -5,-5 -9,-11 -14,-16 -11,-12 -22,-24 -33,-36 -10,-13 -21,-25 -31,-37 -11,-13 -21,-25 -31,-37 -11,-13 -21,-26 -31,-38zm216 -144c8,-6 17,-11 25,-17 8,-5 16,-11 25,-16 8,-6 16,-11 24,-17 8,-5 17,-11 25,-16 9,-6 18,-13 28,-19 9,-6 18,-12 27,-18 9,-6 18,-12 27,-18 9,-6 18,-12 27,-18 9,11 18,23 27,34 9,11 18,23 27,34 9,11 18,23 27,34 9,11 18,22 27,34 4,5 8,10 12,15 4,5 8,10 12,14 4,5 8,10 12,15 4,5 8,10 12,15 -8,6 -17,12 -25,18 -9,6 -17,12 -26,19 -8,6 -17,12 -26,19 -9,6 -17,13 -26,19 -8,6 -16,12 -23,17 -8,6 -16,12 -24,18 -7,5 -15,11 -23,17 -8,6 -15,12 -23,17 -4,-4 -9,-9 -13,-14 -4,-5 -9,-10 -13,-15 -4,-5 -9,-10 -13,-15 -5,-5 -9,-10 -13,-16 -10,-11 -20,-23 -30,-34 -9,-12 -19,-24 -29,-35 -9,-12 -19,-24 -29,-36 -9,-11 -19,-23 -28,-35zm209 -140c16,-11 33,-22 49,-33 16,-11 32,-21 48,-32 16,-11 32,-21 48,-32 15,-10 31,-21 46,-31 9,11 17,22 26,33 9,11 17,22 26,34 9,11 17,22 26,33 9,11 17,22 26,34 4,5 8,10 11,14 4,5 8,10 12,15 3,5 7,10 11,15 4,5 7,10 11,14 -15,11 -30,21 -45,32 -15,10 -30,21 -45,32 -16,11 -31,22 -47,33 -15,11 -31,22 -47,34 -4,-5 -8,-10 -12,-15 -4,-5 -8,-9 -12,-14 -4,-5 -8,-10 -12,-15 -4,-5 -8,-10 -12,-15 -9,-11 -18,-23 -27,-34 -9,-11 -18,-22 -27,-34 -9,-11 -18,-22 -27,-34 -9,-11 -18,-22 -27,-34zm192 -129c15,-10 31,-20 46,-31 15,-10 30,-20 45,-30 15,-10 29,-20 44,-30 15,-10 29,-20 44,-29 8,11 17,22 26,33 8,11 17,22 25,33 9,11 17,23 26,34 8,11 16,22 25,34 3,5 7,10 11,15 3,5 7,10 10,15 4,5 8,10 11,15 4,5 7,9 11,14 -15,10 -29,20 -43,29 -15,10 -29,20 -44,30 -14,10 -29,20 -44,30 -14,10 -29,20 -44,31 -4,-5 -7,-10 -11,-15 -4,-5 -8,-10 -11,-15 -4,-4 -8,-9 -12,-14 -3,-5 -7,-10 -11,-15 -9,-11 -17,-22 -26,-34 -9,-11 -17,-22 -26,-33 -9,-11 -17,-22 -26,-33 -9,-12 -17,-23 -26,-34zm180 -121c14,-10 29,-20 43,-29 15,-10 29,-20 43,-30 14,-9 28,-19 43,-28 14,-10 28,-20 42,-29 8,11 17,22 26,34 8,11 17,23 25,34 9,11 17,23 25,34 9,12 17,24 25,35 4,5 7,11 11,16 3,5 7,10 10,15 4,5 7,10 11,15 3,6 7,11 10,16 -14,9 -28,18 -42,27 -14,9 -28,18 -42,27 -14,10 -28,19 -43,28 -14,10 -28,19 -42,29 -4,-5 -7,-10 -11,-15 -3,-5 -7,-10 -11,-15 -3,-5 -7,-10 -10,-15 -4,-5 -8,-10 -11,-15 -9,-11 -17,-22 -25,-34 -9,-11 -17,-22 -26,-33 -8,-12 -17,-23 -25,-34 -9,-11 -18,-22 -26,-33zm172 -117c14,-9 28,-19 41,-28 14,-10 28,-19 42,-28 14,-10 28,-19 41,-29 14,-9 28,-18 41,-28 9,12 18,24 27,35 9,12 18,24 26,36 9,12 17,24 26,36 8,12 16,24 24,36 4,6 8,11 11,16 4,6 7,11 11,17 3,5 7,10 10,16 3,5 7,10 10,16 -14,8 -28,17 -42,25 -13,9 -27,17 -41,26 -14,9 -28,18 -42,27 -14,8 -28,17 -42,26 -3,-5 -7,-10 -10,-15 -4,-5 -7,-10 -11,-15 -3,-6 -7,-11 -10,-16 -4,-5 -7,-10 -11,-15 -8,-12 -16,-24 -25,-35 -8,-12 -16,-23 -25,-35 -8,-11 -17,-22 -25,-34 -9,-11 -18,-22 -26,-34zm-1200 1203c18,-15 36,-30 54,-46 17,-14 35,-29 52,-44 18,-15 35,-29 52,-43 18,-15 35,-29 52,-43 18,17 36,34 54,50 18,17 36,33 55,48 18,16 36,31 55,45 18,15 37,29 56,43 -15,15 -30,29 -44,44 -15,15 -29,30 -44,45 -14,15 -29,30 -43,46 -15,15 -29,31 -43,47 -22,-14 -44,-28 -65,-43 -22,-15 -43,-31 -65,-46 -21,-16 -42,-33 -63,-50 -21,-17 -42,-35 -63,-53zm211 -177c17,-14 35,-28 52,-42 17,-14 34,-27 51,-41 17,-13 33,-27 50,-40 17,-13 34,-27 51,-40 15,17 31,33 47,49 16,15 32,31 48,46 16,15 31,30 48,45 15,14 32,29 48,43 -15,13 -30,26 -44,40 -15,14 -30,27 -44,41 -15,14 -29,28 -44,42 -14,15 -29,29 -43,43 -19,-14 -38,-28 -56,-43 -19,-14 -37,-29 -55,-45 -18,-15 -37,-31 -55,-48 -18,-16 -36,-33 -54,-50zm205 -164c16,-13 33,-26 50,-39 16,-13 33,-25 50,-38 16,-13 33,-25 49,-38 17,-13 33,-25 50,-38 14,16 28,32 42,48 14,15 28,30 42,45 14,15 28,30 42,45 14,14 28,29 42,43 -14,12 -29,25 -44,38 -15,12 -30,25 -44,38 -15,13 -30,26 -44,39 -15,13 -30,26 -44,40 -16,-14 -33,-29 -48,-43 -16,-15 -32,-30 -48,-45 -16,-15 -32,-31 -48,-46 -16,-16 -32,-32 -47,-49zm200 -153c8,-6 15,-12 23,-18 8,-6 16,-12 23,-17 8,-6 16,-12 24,-18 7,-5 15,-11 23,-17 9,-6 17,-13 26,-19 9,-7 17,-13 26,-19 9,-6 17,-13 26,-19 8,-6 17,-12 25,-18 13,15 26,31 38,46 13,16 26,31 38,46 13,15 26,30 38,45 12,14 25,29 37,43 -8,6 -15,13 -23,19 -8,6 -16,12 -24,18 -8,6 -15,13 -23,19 -8,7 -16,13 -24,19 -7,6 -14,12 -22,18 -7,5 -14,11 -21,17 -7,6 -14,12 -21,17 -7,6 -14,12 -21,18 -14,-14 -28,-29 -42,-43 -14,-15 -28,-30 -42,-45 -14,-15 -28,-30 -42,-45 -14,-16 -28,-32 -42,-47zm197 -146c16,-12 32,-23 47,-34 16,-11 31,-22 46,-33 16,-11 31,-22 46,-32 15,-11 30,-21 45,-32 12,16 24,32 35,47 12,16 24,31 35,47 12,15 23,30 34,45 12,15 23,30 34,45 -14,10 -28,20 -42,31 -14,10 -28,20 -43,31 -14,11 -28,21 -42,32 -15,11 -29,22 -44,34 -12,-15 -25,-29 -37,-44 -12,-15 -25,-30 -38,-45 -12,-15 -25,-30 -37,-45 -13,-16 -26,-31 -39,-47zm185 -131c15,-11 29,-21 44,-31 15,-10 29,-20 44,-30 15,-10 29,-20 43,-30 15,-9 29,-19 43,-28 12,16 23,32 34,47 11,16 22,32 33,48 10,16 21,31 31,47 10,16 21,31 31,47 -14,9 -28,18 -41,27 -14,9 -28,19 -41,28 -14,9 -28,19 -42,29 -13,10 -27,19 -41,29 -11,-15 -22,-30 -34,-45 -11,-15 -22,-30 -34,-45 -11,-15 -23,-31 -35,-46 -11,-16 -23,-32 -35,-47zm175 -120c15,-10 29,-19 43,-29 14,-9 28,-18 43,-28 14,-9 28,-18 42,-27 14,-9 28,-18 42,-27 11,17 22,33 32,50 11,16 21,33 31,49 10,16 20,33 30,49 9,17 19,33 28,49 -14,8 -27,17 -41,25 -13,8 -27,17 -40,25 -14,9 -27,18 -41,26 -13,9 -27,18 -40,27 -10,-16 -21,-31 -31,-47 -10,-15 -21,-31 -31,-47 -11,-16 -22,-31 -33,-47 -11,-16 -22,-32 -34,-48zm171 -112c14,-9 28,-18 42,-26 14,-9 28,-18 41,-27 14,-8 28,-17 42,-26 14,-8 28,-17 42,-25 11,17 21,35 31,52 11,18 20,35 30,53 10,17 19,34 28,52 9,17 18,35 26,52 -13,7 -27,15 -40,22 -14,8 -27,15 -41,23 -13,8 -27,16 -40,24 -13,8 -27,16 -40,24 -10,-17 -19,-33 -29,-49 -9,-17 -19,-33 -29,-50 -10,-16 -20,-32 -31,-49 -10,-17 -21,-33 -32,-50zm168 -105c14,-8 27,-16 41,-25 14,-8 28,-16 42,-25 14,-8 28,-16 42,-24 14,-8 27,-16 41,-24 11,19 22,37 32,56 10,19 19,38 28,56 10,19 19,38 27,57 9,18 17,37 25,56 -14,6 -28,13 -41,20 -14,6 -27,13 -41,20 -13,7 -27,14 -41,21 -13,7 -27,14 -40,22 -8,-18 -17,-35 -26,-53 -9,-17 -18,-35 -28,-52 -10,-17 -19,-35 -30,-52 -10,-18 -20,-35 -31,-53zm-1080 1118c14,-14 29,-29 43,-43 15,-14 29,-28 44,-42 15,-14 29,-27 44,-41 14,-14 29,-27 44,-41 16,14 32,28 48,42 16,13 33,26 49,39 16,13 32,26 49,38 16,13 33,25 49,37 -12,13 -24,25 -36,39 -12,13 -24,26 -36,39 -12,14 -24,27 -35,41 -12,13 -24,27 -35,41 -20,-11 -39,-22 -58,-34 -19,-12 -38,-24 -57,-36 -19,-13 -38,-25 -57,-38 -19,-14 -38,-27 -56,-41zm176 -167c14,-14 29,-27 44,-40 14,-13 29,-26 44,-39 14,-13 29,-26 44,-38 15,-13 30,-26 44,-38 14,14 28,28 42,42 15,13 29,27 43,41 14,13 28,26 42,39 14,13 28,26 42,39 -13,12 -25,24 -38,36 -13,13 -25,25 -38,37 -12,13 -25,25 -37,38 -12,12 -25,25 -37,38 -16,-12 -33,-24 -49,-37 -17,-12 -33,-25 -49,-38 -17,-13 -33,-26 -49,-39 -16,-14 -32,-27 -48,-41zm177 -156c7,-6 14,-12 21,-18 7,-5 14,-11 21,-17 7,-6 14,-12 21,-17 7,-6 14,-12 22,-18 8,-6 15,-13 23,-19 8,-6 16,-13 24,-19 8,-6 16,-12 24,-18 7,-7 15,-13 23,-19 12,15 25,29 37,43 12,15 24,29 37,43 12,14 24,28 36,42 12,13 24,27 36,41 -6,5 -13,11 -20,17 -7,6 -14,12 -21,18 -7,6 -14,12 -21,18 -7,6 -14,12 -21,18 -6,5 -12,11 -18,16 -6,6 -13,11 -19,17 -6,6 -12,11 -18,17 -6,5 -12,11 -18,16 -14,-12 -28,-25 -42,-38 -14,-14 -28,-27 -42,-40 -14,-14 -29,-27 -43,-41 -14,-14 -28,-28 -42,-42zm180 -145c14,-12 29,-23 43,-34 15,-11 29,-21 43,-32 14,-11 29,-21 43,-31 14,-11 28,-21 42,-31 11,15 22,30 32,45 11,14 22,29 33,44 10,14 21,29 32,44 10,14 21,29 31,43 -13,10 -25,19 -38,29 -13,9 -25,19 -38,29 -13,10 -25,20 -38,30 -13,11 -26,21 -39,32 -12,-14 -24,-27 -36,-41 -12,-14 -24,-28 -37,-42 -12,-14 -24,-28 -36,-42 -12,-15 -25,-29 -37,-43zm171 -129c14,-10 28,-19 42,-29 14,-10 28,-20 41,-29 14,-9 28,-19 41,-28 14,-9 28,-18 41,-27 10,15 20,31 30,46 10,16 19,31 29,47 9,15 18,30 28,46 9,15 18,31 27,46 -13,8 -25,17 -38,25 -12,8 -25,17 -37,26 -13,8 -25,17 -38,26 -12,9 -25,18 -37,28 -11,-15 -21,-29 -32,-44 -10,-15 -21,-29 -31,-44 -11,-15 -22,-29 -33,-44 -11,-15 -21,-30 -33,-45zm166 -114c14,-9 27,-18 41,-27 13,-8 27,-17 40,-26 14,-8 27,-17 41,-25 13,-8 27,-16 40,-25 9,17 18,33 27,50 9,16 17,32 26,49 8,16 16,32 24,49 8,16 16,33 24,49 -13,7 -25,14 -38,22 -12,7 -24,15 -37,22 -12,8 -25,16 -37,24 -13,7 -25,15 -37,24 -9,-16 -18,-31 -28,-47 -9,-15 -18,-31 -27,-46 -10,-15 -19,-31 -29,-46 -10,-16 -20,-31 -30,-47zm163 -103c14,-8 27,-16 41,-24 13,-8 26,-16 40,-24 13,-7 27,-15 40,-23 14,-7 27,-14 41,-22 8,18 16,35 24,53 8,17 16,35 23,52 7,18 14,35 21,53 7,17 14,35 20,53 -12,6 -25,12 -37,18 -13,7 -25,13 -38,20 -12,6 -25,13 -37,20 -13,7 -25,14 -38,21 -7,-17 -15,-33 -23,-50 -8,-16 -16,-33 -24,-49 -9,-16 -17,-33 -26,-49 -9,-16 -18,-33 -27,-49zm-804 963c11,-13 23,-27 35,-41 11,-13 23,-27 35,-40 12,-13 24,-27 36,-40 12,-13 24,-26 36,-39 17,12 34,24 50,35 17,12 34,23 50,34 17,11 34,22 51,32 17,10 34,21 51,31 -9,11 -19,23 -28,34 -9,12 -18,24 -27,36 -9,12 -18,24 -27,36 -9,12 -18,24 -26,37 -20,-8 -40,-17 -60,-26 -20,-9 -39,-18 -59,-27 -20,-10 -39,-20 -59,-30 -19,-10 -39,-21 -58,-32zm143 -160c12,-13 25,-26 37,-39 12,-12 25,-25 37,-37 13,-12 25,-25 38,-37 13,-12 25,-24 38,-36 14,13 29,25 43,38 14,12 28,25 43,37 14,12 28,24 43,36 14,12 28,24 43,35 -11,11 -21,22 -31,33 -10,11 -20,22 -30,33 -10,11 -20,22 -30,34 -10,11 -20,22 -29,34 -17,-10 -34,-20 -51,-31 -17,-10 -34,-21 -51,-32 -17,-11 -33,-22 -50,-33 -17,-12 -33,-24 -50,-35zm151 -150c6,-5 12,-11 18,-17 6,-5 12,-11 18,-16 6,-6 12,-11 19,-17 6,-5 12,-11 18,-16 7,-6 14,-12 21,-18 7,-6 14,-12 21,-18 7,-6 14,-12 21,-18 6,-6 13,-12 20,-17 12,13 24,27 36,40 13,14 25,27 37,41 12,13 24,26 36,39 12,14 24,27 36,40 -6,5 -11,10 -17,15 -6,5 -12,11 -18,16 -5,5 -11,11 -17,16 -6,6 -11,11 -17,17 -5,5 -10,9 -16,14 -5,5 -10,10 -15,15 -5,5 -10,10 -15,15 -5,5 -9,10 -14,15 -15,-11 -29,-23 -44,-35 -14,-12 -28,-24 -43,-36 -14,-12 -28,-24 -42,-37 -15,-12 -29,-25 -43,-38zm157 -138c13,-11 26,-21 39,-32 12,-10 25,-20 38,-30 13,-10 25,-20 38,-29 12,-10 25,-19 38,-29 10,15 20,29 31,44 10,14 20,29 30,43 11,14 21,29 31,43 10,15 20,29 30,43 -11,9 -22,17 -33,25 -11,9 -21,18 -32,27 -11,8 -22,18 -33,27 -10,9 -21,18 -32,28 -12,-13 -24,-26 -36,-39 -12,-14 -24,-27 -37,-40 -12,-13 -24,-27 -36,-40 -12,-14 -24,-27 -36,-41zm153 -120c13,-10 26,-19 38,-28 13,-9 25,-18 38,-26 12,-9 25,-18 37,-26 12,-8 25,-17 37,-25 9,16 18,31 27,47 9,15 17,31 26,46 8,16 16,31 25,47 8,15 16,31 24,47 -11,7 -22,14 -32,21 -11,7 -22,15 -33,22 -11,8 -21,16 -32,24 -11,8 -22,16 -33,24 -10,-15 -20,-29 -30,-43 -10,-15 -20,-29 -30,-44 -10,-14 -20,-28 -31,-43 -10,-14 -20,-29 -31,-43zm151 -105c13,-9 25,-17 37,-24 13,-8 25,-16 38,-24 12,-7 25,-15 37,-22 12,-7 25,-15 37,-22 8,17 15,33 22,50 8,17 15,33 22,50 7,17 13,33 20,50 6,17 13,34 19,51 -11,6 -22,12 -33,18 -11,6 -21,12 -32,19 -11,6 -22,13 -33,19 -11,7 -21,14 -32,21 -8,-16 -16,-31 -25,-47 -8,-15 -16,-31 -25,-47 -8,-15 -17,-31 -25,-46 -9,-15 -18,-31 -27,-46zm150 -92c12,-7 25,-14 37,-21 13,-7 25,-14 38,-20 12,-7 25,-13 37,-19 12,-7 25,-13 37,-19 7,18 13,36 19,53 6,18 11,36 16,54 6,18 11,36 16,54 5,19 9,37 14,55 -11,5 -22,10 -33,15 -11,5 -22,10 -33,15 -11,5 -22,11 -33,16 -11,6 -21,12 -32,17 -7,-17 -13,-33 -19,-50 -7,-17 -14,-34 -21,-51 -6,-16 -13,-33 -21,-50 -7,-16 -14,-33 -22,-49zm-559 736c10,-11 19,-22 29,-34 10,-11 20,-22 30,-33 10,-12 20,-23 30,-34 10,-10 20,-21 31,-32 14,11 29,23 44,34 14,11 29,23 44,33 14,11 29,22 44,33 15,11 30,21 45,31 -8,9 -16,18 -23,27 -8,9 -15,18 -22,27 -8,9 -15,19 -22,28 -7,9 -14,18 -20,28 -18,-8 -36,-16 -53,-25 -18,-8 -36,-17 -53,-26 -18,-9 -35,-18 -52,-27 -18,-10 -35,-20 -52,-30zm121 -134c5,-5 9,-10 14,-15 5,-5 10,-10 15,-15 5,-5 10,-10 15,-15 5,-5 11,-10 16,-15 5,-5 11,-11 17,-16 6,-5 12,-11 17,-16 6,-6 12,-11 18,-16 5,-5 11,-10 17,-15 12,13 24,26 36,38 12,13 25,26 37,39 12,13 24,26 36,38 12,13 25,26 37,38 -5,4 -9,9 -14,13 -4,4 -8,8 -13,13 -4,4 -9,9 -13,13 -5,5 -9,9 -13,14 -4,4 -8,8 -12,12 -4,4 -8,8 -11,12 -4,4 -8,8 -12,12 -3,5 -7,9 -11,13 -14,-11 -29,-21 -44,-32 -15,-10 -30,-21 -45,-32 -14,-11 -29,-22 -44,-34 -14,-11 -29,-22 -43,-34zm130 -124c11,-10 21,-19 32,-28 11,-10 22,-19 33,-27 10,-9 21,-18 32,-27 11,-8 22,-16 32,-25 10,15 20,29 30,43 10,15 20,29 30,44 9,14 19,29 29,43 10,14 19,29 29,43 -9,7 -17,14 -26,21 -8,7 -17,14 -25,21 -9,7 -17,15 -25,22 -9,8 -17,16 -26,24 -12,-13 -24,-26 -36,-38 -12,-13 -25,-26 -37,-39 -12,-12 -24,-25 -36,-38 -12,-13 -24,-26 -36,-39zm130 -107c11,-8 22,-16 32,-24 11,-8 22,-16 33,-24 11,-7 21,-15 32,-22 11,-7 22,-14 33,-21 8,15 16,31 23,47 8,16 16,31 23,47 8,16 16,32 23,48 7,16 14,32 22,49 -9,5 -18,11 -26,17 -9,6 -18,11 -26,18 -9,6 -17,12 -26,18 -9,7 -17,13 -26,20 -9,-15 -19,-29 -29,-44 -9,-14 -19,-28 -29,-43 -9,-14 -19,-29 -29,-43 -10,-14 -20,-29 -30,-43zm130 -92c11,-7 22,-14 33,-20 11,-7 21,-14 32,-20 11,-7 22,-13 33,-19 11,-6 21,-12 32,-18 7,17 12,34 18,51 6,17 12,35 17,52 6,17 11,35 16,52 5,18 10,36 14,53 -8,5 -17,9 -26,14 -8,5 -17,10 -26,15 -9,5 -17,10 -26,15 -9,5 -17,11 -26,16 -7,-16 -14,-32 -22,-48 -7,-16 -14,-32 -22,-48 -7,-16 -15,-32 -23,-48 -8,-15 -16,-31 -24,-47zm131 -77c11,-6 22,-12 33,-18 11,-5 21,-11 32,-16 11,-5 22,-10 33,-15 11,-5 22,-10 33,-15 4,19 8,37 12,56 4,18 7,37 11,56 3,18 6,37 9,56 3,19 5,38 7,58 -9,3 -17,6 -26,10 -9,3 -18,7 -26,11 -9,4 -18,8 -27,12 -8,4 -17,9 -26,13 -5,-18 -9,-35 -14,-53 -5,-18 -11,-35 -16,-52 -6,-18 -11,-35 -17,-52 -6,-17 -12,-34 -18,-51zm-344 532c4,-4 8,-8 11,-12 4,-4 8,-8 12,-12 3,-4 7,-8 11,-12 4,-4 8,-8 12,-13 4,-4 8,-9 13,-13 4,-5 9,-9 13,-13 4,-5 9,-9 13,-13 5,-5 9,-9 14,-13 12,13 24,25 36,37 13,13 25,25 37,38 13,12 25,24 38,36 12,12 25,25 37,36 -3,3 -6,6 -9,9 -3,3 -5,6 -8,9 -3,3 -6,6 -9,9 -2,3 -5,6 -8,10 -3,2 -5,5 -7,8 -3,3 -5,6 -8,8 -2,3 -4,6 -7,9 -2,3 -4,5 -6,8 -16,-9 -32,-18 -47,-27 -16,-9 -31,-19 -46,-28 -16,-10 -31,-20 -46,-30 -15,-10 -30,-20 -46,-31zm99 -102c9,-7 17,-15 25,-23 9,-7 17,-15 26,-22 8,-7 16,-14 25,-21 8,-7 17,-14 25,-21 10,15 20,29 29,44 10,14 19,29 29,43 9,15 19,30 28,44 9,15 19,30 28,44 -6,5 -11,10 -17,14 -6,5 -11,10 -17,15 -5,5 -11,10 -16,15 -6,5 -11,11 -17,16 -12,-12 -25,-24 -37,-36 -12,-12 -25,-25 -37,-37 -12,-12 -25,-25 -37,-37 -12,-12 -25,-25 -37,-38zm102 -87c9,-7 17,-13 26,-20 8,-6 17,-12 25,-18 9,-6 18,-12 26,-18 9,-6 17,-12 26,-17 7,16 14,32 21,49 7,16 14,33 20,49 7,17 13,33 20,50 6,17 12,34 18,51 -6,3 -11,7 -17,11 -6,4 -12,8 -18,12 -5,4 -11,8 -17,13 -5,4 -11,9 -17,13 -9,-15 -18,-29 -28,-44 -9,-15 -18,-29 -28,-44 -9,-14 -19,-29 -28,-44 -10,-14 -19,-29 -29,-43zm104 -74c8,-5 17,-11 26,-16 8,-5 17,-10 26,-15 8,-5 17,-10 26,-15 8,-5 17,-9 26,-14 4,18 9,36 13,54 4,18 8,37 12,55 4,18 7,37 11,55 3,19 6,38 9,56 -6,3 -12,6 -18,9 -6,3 -12,6 -17,10 -6,3 -12,6 -18,10 -6,3 -12,7 -17,10 -6,-17 -13,-33 -19,-50 -6,-17 -13,-34 -19,-50 -7,-17 -14,-33 -20,-50 -7,-16 -14,-32 -21,-49zm104 -60c9,-4 18,-9 27,-13 8,-4 17,-8 26,-12 9,-4 17,-7 26,-11 9,-3 18,-7 26,-10 2,19 4,39 6,58 1,20 2,39 3,59 1,20 2,40 2,60 0,20 0,41 -1,61 -5,2 -11,4 -17,6 -6,2 -12,4 -18,7 -6,2 -11,5 -17,7 -6,3 -12,5 -18,8 -3,-19 -6,-37 -9,-56 -3,-19 -7,-37 -10,-56 -4,-18 -8,-36 -12,-54 -5,-18 -9,-36 -14,-54z"/>
        </g>
        <g class="left-figure">
            <path class="lines" d="M1110 1632l-40 -343 -254 -595 403 407 -411 -193 933 675 -939 -100 -216 86 27 -280 195 -381 -301 137 -76 411 182 -167 303 17 -409 -261 -500 -500m1734 1038l503 -41 -1011 -327m-317 91l154 -17 -639 167m377 -548l-179 -16 -622 112m809 -310l-187 198 -122 153m106 244l-106 -244m1234 538l-487 -181 -184 -113 -268 194 6 -575 8 -214 256 152 -2 443 -262 -381 411 193 14 114 21 187 487 181z"/>
            <path class="point" d="M1072 835c-6,0 -10,5 -10,11 0,6 4,11 10,11 6,0 11,-5 11,-11 0,-6 -5,-11 -11,-11z"/>
            <path class="point" d="M629 881c-6,0 -10,5 -10,11 0,6 4,11 10,11 6,0 11,-5 11,-11 0,-6 -5,-11 -11,-11z"/>
            <path class="point" d="M1254 1385c-9,0 -17,8 -17,17 0,10 8,17 17,17 10,0 17,-7 17,-17 0,-9 -7,-17 -17,-17z"/>
            <path class="point" d="M802 1469c-7,0 -13,6 -13,14 0,7 6,13 13,13 8,0 14,-6 14,-13 0,-8 -6,-14 -14,-14z"/>
            <path class="point" d="M808 892c-9,0 -16,7 -16,16 0,9 7,16 16,16 9,0 16,-7 16,-16 0,-9 -7,-16 -16,-16z"/>
            <path class="point" d="M507 1027c-10,0 -17,8 -17,18 0,9 7,17 17,17 10,0 18,-8 18,-17 0,-10 -8,-18 -18,-18z"/>
            <path class="point-circle" d="M507 1019c-14,0 -26,11 -26,26 0,14 12,26 26,26 14,0 26,-12 26,-26 0,-15 -12,-26 -26,-26"/>
            <path class="point" d="M431 1420c-19,0 -35,16 -35,36 0,19 16,35 35,35 20,0 36,-16 36,-35 0,-20 -16,-36 -36,-36z"/>
            <path class="point" d="M2244 1527c-8,0 -14,7 -14,15 0,8 6,14 14,14 8,0 15,-6 15,-14 0,-8 -7,-15 -15,-15z"/>
            <path class="point-circle" d="M2244 1520c-12,0 -21,10 -21,22 0,12 9,21 21,21 12,0 22,-9 22,-21 0,-12 -10,-22 -22,-22"/>
            <path class="point-circle" d="M431 1406c-27,0 -49,22 -49,50 0,27 22,49 49,49 28,0 50,-22 50,-49 0,-28 -22,-50 -50,-50"/>
            <path class="point" d="M613 1276c-7,0 -13,6 -13,13 0,8 6,14 13,14 8,0 14,-6 14,-14 0,-7 -6,-13 -14,-13z"/>
            <path class="point" d="M916 1293c-7,0 -14,6 -14,13 0,8 7,14 14,14 8,0 14,-6 14,-14 0,-7 -6,-13 -14,-13z"/>
            <path class="point" d="M586 1555c-7,0 -13,6 -13,14 0,7 6,14 13,14 8,0 14,-7 14,-14 0,-8 -6,-14 -14,-14z"/>
            <path class="point" d="M952 999c-8,0 -14,6 -14,13 0,8 6,14 14,14 7,0 13,-6 13,-14 0,-7 -6,-13 -13,-13z"/>
            <path class="point" d="M1070 1025c-4,0 -7,3 -7,6 0,4 3,7 7,7 3,0 6,-3 6,-7 0,-3 -3,-6 -6,-6z"/>
            <path class="point" d="M930 952c-8,0 -14,6 -14,14 0,7 6,13 14,13 7,0 13,-6 13,-13 0,-8 -6,-14 -13,-14z"/>
            <path class="point" d="M1097 1499c-8,0 -14,6 -14,14 0,7 6,14 14,14 7,0 14,-7 14,-14 0,-8 -7,-14 -14,-14z"/>
            <path class="point" d="M1072 944c-4,0 -7,4 -7,8 0,4 3,8 7,8 5,0 8,-4 8,-8 0,-4 -3,-8 -8,-8z"/>
            <path class="point" d="M1072 1084c-7,0 -13,6 -13,13 0,8 6,14 13,14 8,0 14,-6 14,-14 0,-7 -6,-13 -14,-13z"/>
            <path class="point" d="M1233 1202c-8,0 -14,6 -14,14 0,7 6,13 14,13 7,0 14,-6 14,-13 0,-8 -7,-14 -14,-14z"/>
            <path class="point" d="M1219 1088c-7,0 -13,6 -13,13 0,8 6,14 13,14 8,0 14,-6 14,-14 0,-7 -6,-13 -14,-13z"/>
            <path class="point" d="M813 708c8,1 15,-4 16,-11 2,-8 -3,-15 -11,-16 -7,-1 -14,3 -16,11 -1,7 4,14 11,16z"/>
            <path class="point-circle" d="M812 716c12,3 24,-5 26,-18 2,-12 -6,-23 -18,-26 -12,-2 -24,6 -26,18 -3,12 6,24 18,26"/>
            <path class="point" d="M1066 1309c11,2 22,-5 24,-16 2,-11 -5,-22 -16,-24 -12,-2 -22,5 -24,16 -2,11 5,22 16,24z"/>
            <path class="point" d="M1738 1599c9,2 18,-4 20,-13 1,-9 -5,-18 -14,-20 -9,-2 -18,4 -19,14 -2,9 4,17 13,19z"/>
            <path class="point-circle" d="M1737 1607c13,2 26,-7 28,-20 3,-13 -6,-26 -19,-28 -14,-3 -27,6 -29,19 -2,13 6,26 20,29"/>
        </g>
        <g class="globe">
            <g class="dotted-lines">
                <path class="big" d="M2472 935l1 -2 -17 -6 -1 3 17 5zm-460 63l24 -2 0 -3 -25 2 1 3zm49 -4l0 0 25 -2 -1 -3 -25 2 1 3zm50 -5l0 0 25 -2 0 -2 -25 2 0 2zm-170 -2l0 0 0 -2 -23 -10 0 2 23 10zm221 -2l0 0 25 -2 0 -3 -26 3 1 2zm50 -5l0 0 3 0 -1 -2 -2 0 0 2zm3 0l0 0 23 -2 0 -3 -24 3 1 2zm48 -5l0 0 25 -2 0 -3 -25 3 0 2zm-368 -8l0 0 1 -3 -8 -3 -4 -2 -11 -5 0 2 9 4 3 2 10 5zm421 3l0 0 21 -3 1 -2 -21 2 -2 0 -2 0 0 3 2 0 1 0zm45 -6l0 0 24 -3 0 -2 -23 3 -1 2zm47 -6l0 0 21 -3 0 -2 -21 3 0 2 0 0zm-557 -12l0 0 0 -3 -21 -10 -1 2 22 11zm598 6l0 0 20 -3 0 -3 -19 4 -1 2zm-641 -28l0 0 1 -2 -21 -11 0 2 20 11zm-40 -22l0 0 1 -2 -19 -12 -1 3 19 11zm-37 -22l0 0 1 -3 -17 -11 -1 2 17 12 0 0zm-33 -23l0 0 0 -3 -6 -4 0 3 6 4zm-8 -6l0 0 0 -3 -7 -5 0 2 7 6zm-21 -17l0 0 0 -3 -12 -11 0 2 12 12zm-23 -23l0 0 1 -3 -10 -12 0 3 9 12zm-17 -24l0 0 1 -2 -7 -12 0 3 6 11zm-11 -23l0 0 1 -2 -4 -12 0 3 3 11zm819 160l0 0 1 -2 -19 -6 -1 2 19 6zm-39 -12l0 0 1 -2 -22 -6 -1 2 22 6zm-44 -12l0 0 1 -2 -23 -7 -1 3 23 6zm-46 -12l0 0 1 -3 -24 -6 -1 2 24 7zm-48 -13l0 0 1 -3 -12 -3 -1 0 -12 -3 -1 2 12 3 1 1 12 3zm-175 -37l0 0 3 1c0,-1 0,-2 0,-3 -1,0 -3,0 -4,0l-1 -1 0 2 0 1 0 0 2 0zm-28 -3l0 0 1 -3 -26 -3 0 2 25 4 0 0zm-51 -7l0 0 1 -3 -25 -3 -1 3 25 3zm-49 -7l0 0 0 -3 -25 -3 0 2 25 4zm-49 -7l0 0 1 -3 -8 -1 0 0c0,1 0,2 0,3 2,0 5,0 7,1zm-7 -4l0 0c0,0 0,0 0,0 -1,0 -3,-1 -4,-1l0 0c0,1 0,2 0,3 1,0 2,0 4,1 0,-1 0,-2 0,-3zm-4 -1l0 0c0,0 0,0 0,0 -1,0 -3,0 -4,0l0 0c0,1 0,2 0,2 1,1 2,1 3,1 0,0 0,-1 1,-3zm-5 0l0 0c0,0 0,0 0,0 -1,-1 -2,-1 -3,-1l0 0c0,1 0,2 0,3 1,0 2,0 3,0 0,0 0,-1 0,-2zm-4 -1l0 0c0,0 0,0 0,0 -1,0 -2,-1 -3,-1l0 3 2 1c1,-1 1,-2 1,-3zm-81 -14l0 0c0,0 0,0 0,0 -1,0 -3,0 -4,-1l0 1c0,1 0,1 0,2 1,0 2,1 3,1 1,-1 1,-2 1,-3zm-5 -1l0 0c0,0 0,0 0,0 -1,0 -2,0 -3,0l0 0c0,1 0,2 0,2 0,1 1,1 2,1l1 0c0,-1 0,-2 0,-3zm-4 0l0 0c0,0 0,0 0,0 0,0 0,-1 0,-1l-1 3 0 0 0 0 1 0c0,-1 0,-1 0,-2zm-21 -3l0 0 0 -1 -2 -1 -17 -3 0 3 16 3 1 0 0 0 2 0 0 -1 0 0zm-38 -6l0 0 1 -3 -18 -4 0 3 17 4 0 0zm-34 -8l0 0 1 -3 -10 -2 0 3 9 2zm-11 -3l0 0 1 -3 -5 -1 0 3 4 1zm-18 -5l0 0 0 -3 -13 -4 0 3 13 4zm-24 -8l0 0 0 -2 -10 -4 0 3 10 3zm-19 -7l0 0 1 -3 -7 -4 -1 3 7 4zm-12 -8l0 0 0 -2 -4 -4 0 3 4 3z"/>
                <line class="small" x1="2022" y1="637" x2="2259" y2= "629" />
                <line class="small" x1="2011" y1="681" x2="2103" y2= "784" />
                <line class="small" x1="2286" y1="665" x2="2213" y2= "775" />
                <line class="small" x1="2550" y1="635" x2="2354" y2= "628" />
            </g>
            <g class="normal-lines">
                <path class="thick-line dark-line" d="M1739 1045c32,-26 61,-44 146,-83l-3 -2c-67,31 -108,53 -145,82 0,1 1,2 1,2 0,0 0,1 1,1zm204 -373l-6 6 -7 7 -1 1 -9 11 -1 1 -3 4 -1 1 -5 5 0 1 -10 12 -21 24c1,1 1,1 2,2l0 0 22 -26 13 -16 1 0 1 -1 3 -4 1 -1 9 -11 1 -1 6 -7c2,-2 4,-4 6,-6 3,-3 6,-7 9,-10 6,-7 13,-14 19,-21l5 -5 1 -1c-4,-1 -8,-2 -13,-3 -4,-1 -7,-2 -11,-3 -5,-1 -9,-3 -13,-4l-3 0 -9 -3 -8 -2 -1 0 -10 -3 -1 0 -17 -5c-34,-10 -55,-16 -90,-29l0 1c0,0 0,1 -1,1 6,2 13,5 18,7l1 0c33,11 33,11 71,22l17 5 1 0 10 3 2 1 7 2c3,0 6,1 9,2l3 1c3,1 7,2 11,3 4,1 8,2 12,3l8 2 2 1c-2,1 -4,4 -6,6 -4,5 -9,10 -13,15 -4,4 -8,8 -11,12zm166 217l0 0 2 -2c0,0 0,0 0,0 -18,13 -72,55 -119,95 0,1 0,1 0,1 3,-2 7,-6 10,-8l1 -1c37,-30 37,-30 76,-61l0 0 13 -10 1 -1 15 -12 1 -1zm-118 93l0 0c40,-33 40,-33 119,-96 0,0 0,0 0,0 -1,0 -2,1 -3,1l-1 1 -15 12 -1 1 -13 10 -1 1c-31,25 -46,37 -75,61l-2 1 -8 7c0,0 0,1 0,1 0,0 0,0 0,0zm105 -108l0 0 4 -1c-1,-1 -1,-2 -2,-3 -1,1 -2,1 -3,2l-1 0c-16,6 -37,15 -52,21l-1 0c-42,17 -50,21 -75,31l-1 0c-13,6 -31,13 -44,19l-2 1c-10,4 -24,10 -35,15l4 2c10,-5 24,-11 35,-16l1 -1c13,-5 29,-12 41,-17l2 0c42,-18 42,-18 78,-32l0 0c15,-6 35,-14 50,-21l1 0zm-311 11l0 0c7,-11 15,-25 22,-36 0,0 -1,-1 -1,-1 -7,11 -16,25 -23,36l0 1c-24,45 -46,87 -52,150 0,1 1,1 1,2 5,-38 10,-73 53,-151l0 -1 0 0zm22 -36l0 0 2 -3c0,-1 -1,-2 -1,-2 -1,1 -2,2 -2,3 0,1 1,1 1,2zm2 -4l0 0 2 -3c0,0 -1,-1 -1,-2 -1,1 -2,2 -2,3 0,1 1,2 1,2zm3 -4l0 0 2 -2c-1,-1 -1,-2 -2,-3 0,1 -1,3 -2,3 1,1 1,2 2,2zm3 -4l0 0 2 -3c-1,-1 -1,-1 -2,-2 0,1 -1,2 -2,3 1,1 1,2 2,2zm54 -75l0 0 3 -4c-1,0 -2,-1 -2,-1 -1,1 -2,2 -3,4 1,0 1,1 2,1zm3 -5l0 0 3 -2c-1,-1 -1,-2 -2,-2 -1,1 -2,2 -2,3 0,0 1,1 1,1zm3 -3l0 0 3 -3c-1,-1 -1,-1 -2,-2 -1,1 -2,2 -2,3 0,1 1,1 1,2l0 0zm3 -4l0 0 3 -3c-1,0 -1,-1 -2,-1 -1,0 -2,2 -3,3 1,0 2,1 2,1l0 0zm-78 -165l0 0c0,0 0,0 0,-1 -1,0 -2,0 -3,-1l0 1c-1,0 -1,1 -2,2 1,0 3,0 4,1 0,-1 1,-2 1,-2z"/>
                <path class="thick-line light-line" d="M2540 598c-1,-1 -2,-2 -3,-3l0 1c0,0 0,0 0,1 0,0 0,0 0,0 0,0 0,0 0,0 1,1 2,2 3,3 0,-1 0,-1 0,-2zm-5 -4l0 0c-1,-4 -6,-6 -9,-9l0 1c0,0 0,0 0,1 0,0 0,0 0,0 3,3 7,6 9,9 0,-1 0,-2 0,-2zm-70 5l0 0c-5,-17 -11,-40 -17,-56 5,16 11,39 15,56l2 9 4 24 1 1c2,18 4,43 6,61l0 0 0 33 0 2c-2,50 -3,55 -8,94l0 0 -4 24 0 1c-4,17 -9,40 -14,58l0 1c-14,45 -18,56 -39,106l0 1 -3 6 -1 2c-21,42 -24,48 -45,83l0 1c-39,58 -60,84 -103,126 46,-42 68,-71 104,-126l1 -1c22,-38 27,-46 46,-85l1 -2 1 -3 1 -1c17,-41 22,-54 38,-106l1 -1c4,-19 10,-44 14,-63l0 -1 4 -20 0 0c6,-51 7,-57 8,-95l0 -2 -1 -31 0 0c-1,-19 -3,-43 -6,-62l0 -1 -4 -24 -2 -9zm60 -14l0 0c0,0 -21,-20 -71,-52l1 0c0,1 0,1 0,1 8,6 19,14 27,19l5 4c12,9 27,21 38,30 0,-1 0,-1 0,-2z"/>
                <path class="regular-lines" d="M1718 1034c-28,-38 -64,-86 -88,-160 16,-18 23,-23 57,-43l3 3 0 14 0 3c4,72 9,110 33,180 -19,-64 -28,-99 -31,-178l0 -3 0 -15c28,17 43,27 91,50l0 0 0 -1c-39,-20 -55,-28 -91,-51l0 -5c25,-12 43,-21 83,-37l-1 0c-27,11 -51,21 -82,37 1,-16 2,-38 4,-54l0 -3c4,-24 10,-56 15,-79 48,-12 73,-17 143,-31l25 18c0,0 0,-1 0,-1l-24 -17 28 -6 0 0c0,0 0,0 0,-1l-29 6c-30,-23 -33,-26 -50,-41l0 0c-1,0 -1,0 -1,1 28,24 28,24 49,40 -68,13 -95,19 -141,30l0 2m571 -118l0 0 -13 3 0 0 0 0 -23 -27 0 0c0,0 -1,0 -1,0l23 27c-14,3 -32,8 -46,11l2 0c14,-3 32,-7 45,-10 1,1 2,2 2,3 0,0 1,-1 1,-1l-2 -2m0 0l0 0c6,-1 6,-1 12,-4m-223 -19c-17,1 -38,2 -55,3l6 -15 0 0c0,0 -1,0 -1,0l-6 15 1 0 0 0m-43 2c-17,0 -39,1 -55,2 0,0 0,1 -1,1 17,-1 39,-2 56,-2 0,1 1,4 1,5 0,0 1,0 1,0l-1 -5m0 0l0 0c12,-1 29,-2 41,-2 -2,5 -5,12 -7,18 1,0 1,0 1,0l7 -18m0 0l0 0c16,-1 37,-2 53,-3 -7,8 -18,18 -26,26 1,0 1,1 1,1 8,-8 19,-19 27,-27 37,-1 47,-2 80,-4l-2 -1 0 0c-43,3 -45,3 -77,4l10 -10c0,0 -1,0 -1,0l-10 10 -2 1m-97 -15l0 0c0,0 -1,0 -1,0l2 19 0 0 0 0m1 -1l0 0 -2 -18m-330 333c-13,-45 -18,-64 -18,-122l0 0c0,1 -7,40 17,123 -9,15 -9,15 -10,23 -8,-49 -12,-77 -8,-141l0 0c-3,53 -4,78 8,141 0,4 -1,10 0,14m0 1l0 0m0 0l0 0m0 0c0,-5 -1,-10 0,-14 15,63 50,210 217,325 0,0 0,0 0,0 -52,-38 -175,-128 -217,-326 4,-15 4,-15 10,-23 14,38 32,89 89,160 0,0 0,-1 0,-1m-7 -344l10 -34 -4 9 0 1 -8 25c-34,9 -76,20 -93,40 0,0 0,0 -1,1 12,-11 24,-22 94,-40 -5,23 -11,55 -14,78l-1 3c-1,17 -3,39 -4,56l-2 1c-27,-19 -66,-48 -74,-88l0 0c0,0 -1,39 72,89 -32,18 -39,24 -56,43m810 166c26,-41 30,-46 46,-78 -23,43 -26,48 -46,78l0 1c-29,40 -32,44 -56,74 -6,-3 -14,-7 -20,-10l-1 1c6,3 14,7 20,10 -47,53 -71,76 -122,117 50,-40 76,-65 122,-117 22,12 47,25 58,44 -33,19 -77,44 -182,81 106,-36 161,-68 182,-81 2,6 4,13 0,21m0 1c-1,0 -1,1 -1,2m-2 3c0,0 0,0 0,0m-1 1c-1,1 -2,2 -3,3m-1 1c0,0 -1,1 -1,2l-1 0c0,-1 1,-1 2,-2m1 -1c1,-1 2,-2 3,-3m1 -1c0,0 0,0 0,-1m2 -3c1,-1 1,-1 2,-2m0 0c3,-6 4,-13 0,-21 10,-7 23,-15 33,-22 -3,8 -6,14 -9,20m0 0c-2,3 -4,6 -7,9m-5 6c-1,1 -2,2 -4,4m-1 1c-2,2 -4,4 -7,7l1 -1c3,-2 5,-5 7,-6m1 -1c1,-2 2,-3 3,-4m6 -7c3,-3 5,-6 7,-9m0 0c3,-6 6,-12 9,-20 7,-6 17,-13 24,-19 -2,3 -3,5 -5,8m0 0c-9,14 -13,19 -21,28m-2 2c-4,4 -8,8 -13,13m1 0c4,-5 8,-9 11,-12m2 -2c10,-11 14,-16 23,-31m1 0c1,-2 2,-5 4,-7 1,-1 2,-3 4,-4m0 0c8,-8 17,-18 23,-26 -6,10 -15,23 -22,32m0 -1c7,-9 17,-21 23,-31l7 -11 1 -1m0 1l-8 10c7,-11 12,-20 16,-27m1 -2c5,-9 9,-17 13,-27m1 -1l0 0m4 -10c0,-2 1,-3 1,-4m4 -10c1,-1 1,-3 2,-4l0 1m0 2c0,6 0,8 -1,10l0 2c2,-8 2,-10 2,-14m-1 -1l0 -1c13,-47 27,-95 13,-191 15,-4 17,-5 24,-8l1 -1 0 0 1 0 -2 -3c-6,-10 -15,-24 -34,-41l4 -31c0,0 0,0 0,0 -1,9 -3,22 -4,31l-3 -3c-16,-47 -16,-47 -27,-70l0 0c4,-5 11,-11 15,-17 0,0 0,0 -1,-1 -4,5 -10,12 -15,17 -7,-14 -16,-33 -24,-47l-1 -1c-16,-27 -35,-57 -64,-94l0 1c36,48 39,53 64,93l0 1c8,14 18,33 25,47 -20,17 -22,18 -38,28l-3 -2c-4,-25 -10,-50 -17,-74 0,-1 0,-1 0,-1l0 0c-9,-32 -21,-62 -35,-90 13,28 25,58 34,90 0,0 0,0 0,1 7,24 13,48 17,73l-24 -12 0 0 24 13c0,1 0,3 1,4 -7,4 -17,10 -24,14l0 2c7,-5 17,-10 24,-14 5,34 8,70 7,106l-23 3 -5 0 -6 0 -5 0 0 0 5 1 5 0 -3 5 -11 14 0 1 11 -15 4 -5 5 -1 23 -2c0,2 0,5 0,7 -1,32 -4,63 -10,93 0,0 1,0 1,0 0,0 0,0 0,0l0 0c5,-30 9,-61 10,-93 0,-2 0,-5 0,-7 29,-4 32,-4 49,-7 -16,43 -23,63 -53,111 0,0 0,0 1,1 0,-1 0,0 0,0l0 0c24,-43 35,-62 53,-112 7,-2 16,-3 23,-5 7,52 14,106 -12,190 -9,-20 -21,-30 -64,-52 43,26 59,36 64,54l-3 6m-3 9l-1 1m-5 14c-4,8 -7,16 -12,24m-1 3c-5,7 -10,17 -17,29 -6,7 -15,17 -23,24m0 1c-2,1 -3,3 -5,4 15,-32 36,-76 1,-160l0 0c0,0 0,0 -1,0 15,40 35,93 -1,161 -7,6 -16,14 -24,20 5,-27 5,-51 -36,-97l0 1c-22,32 -27,38 -56,74 43,22 51,34 58,44 10,-6 23,-15 33,-22 9,-39 -10,-65 -35,-96m24 -193l0 0 0 -1c-11,13 -25,31 -36,44 -31,-20 -43,-27 -102,-61l0 -10 -2 0 -17 0 17 9 0 -9m25 148c-11,10 -26,23 -37,33l4 -31 -1 0 -5 32 -18 16 -6 4 -5 -3 -6 -3 6 4 5 3 6 -5 18 -15 -3 18c0,0 1,0 1,0 0,0 0,0 0,1 -1,0 -1,0 -1,0 -1,2 -2,6 -2,9 0,0 1,0 1,0l0 0 5 -29c12,-11 27,-24 39,-34 35,25 38,27 61,46l0 0 0 -1c-29,-24 -29,-24 -60,-46 32,-30 44,-41 76,-75l23 15 0 0 0 -1 -22 -15c11,-13 29,-28 36,-43m-138 -28c20,1 46,1 66,2 -20,-1 -46,-2 -66,-2l0 -4 0 0 0 0c18,-3 43,-7 61,-10 0,0 0,-1 0,-1 -18,3 -43,6 -61,9l-1 -22c41,-15 51,-19 74,-28l2 3c1,0 1,0 1,0l0 0c0,0 0,0 0,-1 0,0 -1,-2 -2,-3 36,-15 45,-18 76,-34l0 0 0 -2c-30,15 -37,19 -76,35 -26,-43 -29,-47 -57,-89l0 0c0,0 0,0 0,0 35,55 41,64 56,89 -44,17 -44,17 -74,28 -1,-17 -2,-40 -3,-57 0,0 -1,0 -1,0 1,17 2,40 3,57 -13,5 -30,11 -43,15 -43,-23 -43,-23 -76,-41 7,5 7,5 9,7l1 0c20,11 45,24 65,35l-24 8c0,1 0,1 0,1 0,1 -1,1 -1,1l-8 1 -10 0 -2 0 -3 -1 0 0 3 1 2 0 9 0 -9 3c0,1 0,1 0,2l0 0 13 -4c13,0 29,1 42,1 -17,2 -38,5 -54,7 0,1 0,1 0,2l0 0c18,-3 43,-6 62,-9l4 0 20 12c-1,59 -1,61 -6,114 -31,-20 -47,-30 -99,-63l0 0c0,1 0,1 -1,1 34,21 67,42 100,64l-3 20 0 0 2 0 2 -20c9,7 21,15 30,21m-220 -421l0 0 0 0 0 0 0 0 0 0 0 0 0 0 0 0 0 0 0 0 0 0 0 0 0 0 0 0 0 0 0 0 0 0 0 0 0 0 0 0 0 0 0 0 0 0 0 0 0 0 0 0 0 0 0 0 0 0 0 0 0 0 0 0 0 0 0 0 0 0 0 0 0 0 0 0 0 0 0 0 0 0 0 0 0 0 0 0 0 0 0 0 0 0 0 0 0 0 0 0 0 0 0 0 0 0 0 0 0 0 0 0 0 0 0 0 0 0 0 0 0 0 0 0 0 0 0 0 0 0 0 0 0 0 0 0 0 0 0 0 1 0 0 0 0 0 0 0 0 0 0 0 0 0 0 0 0 0 0 0 0 0 0 0 0 0 0 0 0 0 0 0 0 0 0 0 0 0 0 0 0 0 0 0m30 -101l7 -7m-2 0l-5 7 -6 -8m-1 0l6 8c-22,27 -31,38 -72,80m1 1c37,-39 48,-50 72,-80l8 10c0,0 0,0 0,0l0 0c0,0 1,0 1,0 -3,-3 -6,-7 -9,-11l0 1m13 -18c16,-23 18,-26 25,-42 0,0 0,0 0,-1 -12,22 -13,24 -25,42 -10,-62 -20,-104 -38,-124 0,0 0,0 0,0 14,18 25,46 37,125l-6 9m1 0l6 -8 1 8m1 0l-2 -9 0 1m-28 836c32,-6 58,-11 89,-17 -13,2 -13,2 -89,16 26,-27 34,-36 64,-71 14,17 24,28 32,45 0,0 1,0 1,0l0 0c-7,-14 -12,-23 -33,-46 24,-28 29,-34 49,-61m0 -1c-26,34 -28,37 -49,62 -7,-7 -16,-16 -23,-23 14,-9 34,-22 49,-31 -15,9 -35,21 -50,30 -29,-26 -47,-42 -117,-95 16,-41 16,-41 26,-66 123,43 123,43 136,48l2 0c0,0 0,0 -1,0l0 0 11 4m-1 -2c-14,-5 -14,-5 -147,-51 15,-35 15,-35 30,-70m-1 -1c-18,41 -22,52 -30,70 -37,-13 -52,-18 -90,-32l-1 1c46,17 48,17 91,32 -17,42 -18,46 -26,66 -50,-39 -50,-39 -72,-56l0 0c28,23 28,23 72,57l1 1c42,33 82,64 116,95 -49,31 -71,46 -98,66l-1 1c-29,23 -37,33 -43,47 8,-15 15,-23 44,-47 9,23 10,25 15,36 -28,6 -41,8 -57,13 19,-4 38,-8 57,-12 5,16 5,17 6,23 0,0 0,0 0,0 -2,-12 -2,-12 -6,-23 21,-4 21,-4 43,-8 -19,19 -19,19 -32,31 0,1 0,1 0,1 0,0 0,0 0,0l0 0c14,-13 14,-13 33,-32l-1 0m271 -250c38,-31 41,-34 67,-60 0,0 0,0 0,0 -34,32 -37,35 -68,59l-1 -1 -1 1 1 1 -2 2 -1 2 4 -3c8,7 18,17 26,24m0 -1c-7,-7 -17,-17 -25,-24l-1 1m-171 -471c68,-5 134,-10 188,-19 0,0 -1,-1 -1,-1 -30,4 -71,11 -188,19l-13 -16m-1 1l13 15c-13,1 -29,2 -41,2m-2 2c13,-1 30,-2 43,-3l4 4 0 0c0,0 1,0 1,0l-3 -4 -2 0m-198 602c10,-34 12,-38 25,-73m-1 -1c-13,35 -16,43 -25,73 -33,-67 -38,-78 -58,-121l0 0c0,0 -1,0 -1,0 16,34 24,52 59,122 -10,37 -26,99 -3,134 -9,-18 -21,-46 4,-133 24,49 28,58 42,88m1 -1c-13,-28 -16,-34 -43,-88l0 1m70 153c52,-3 81,-5 108,-8 0,0 1,-1 1,-1 -22,3 -46,6 -109,9 0,0 0,0 0,0zm-98 -702l6 -6c0,-1 0,-1 -1,-1 -2,2 -4,4 -6,6 0,0 0,1 1,1zm-47 120c0,0 -1,0 -1,0l0 4 0 0 -1 10 -18 -11 0 0 -30 -19 5 -3 1 0 13 -8 1 0 10 -6 9 -5c0,0 0,0 0,0 -3,2 -6,3 -9,5l-10 6 -1 0 -13 7 -1 1 -5 3 0 0 0 0 -1 1 -1 0 1 0 28 18 0 0 21 13c-1,20 -2,46 -3,67 -18,-2 -43,-3 -61,-5l0 0c18,2 43,4 61,5l0 38c0,0 1,0 1,0l0 0c0,1 0,1 0,1 0,-12 0,-27 1,-39 45,3 54,3 101,6l1 0 19 1 1 0 3 0c1,0 1,0 1,0l0 0 -4 0 -1 0 -19 -1 -1 0c-47,-3 -56,-4 -101,-6 0,-20 1,-47 2,-67 31,19 53,32 102,60 0,0 1,-1 1,-1l0 0 0 0c-37,-21 -66,-38 -103,-60l1 -11 0 0 0 -4zm1 -16l0 0c0,0 0,0 -1,0 0,4 -1,10 -1,14 0,0 1,0 1,0l1 -14zm1 -11l0 0c0,0 -1,0 -1,0 0,3 -1,7 -1,10 1,0 1,0 1,0l1 -10zm-91 -15l0 0c0,0 0,1 0,1 10,7 25,17 36,24l1 -1c-12,-7 -26,-17 -37,-24zm149 -10l0 0c0,0 0,1 -1,1 33,18 54,31 111,61l0 0c12,6 28,15 40,21 1,1 3,1 6,2l0 0c0,0 1,0 1,0 -13,-7 -31,-16 -44,-23l0 0c-53,-29 -74,-40 -113,-62zm-9 -5l0 0c0,0 0,1 0,1 2,1 5,3 7,5 1,-1 1,-1 1,-2l-8 -4zm-104 -15l0 0 -32 6c0,1 0,1 0,1 10,-1 23,-4 32,-6 0,0 0,0 0,-1zm10 -2l0 0c-3,1 -6,1 -9,2 0,0 1,1 1,1 2,0 5,-1 8,-1 0,-1 0,-1 0,-2zm110 -20l0 0c-2,0 -6,1 -8,1 0,1 0,1 0,2 2,-1 6,-2 8,-2 0,-1 0,-1 0,-1zm41 -8c-12,2 -28,5 -40,7 0,1 1,1 1,2 10,-2 25,-5 35,-7l-21 11 -1 1 -7 3 -2 2 -4 2 -2 1 -9 5 -11 5 0 1 11 -6 9 -5 2 -1 5 -2 2 -1 6 -4 1 0 22 -12c55,-11 96,-19 151,-31 10,4 24,9 34,13 0,0 0,0 0,0l0 0c-10,-4 -23,-9 -34,-14l-2 0c-12,-5 -29,-12 -41,-17l-6 -3 -6 -2 7 -4 22 -13 0 0 0 0 2 -2c8,-5 20,-12 28,-17l1 -1c26,-17 69,-46 94,-76 51,29 64,37 104,63 0,0 0,-1 0,-1l0 0 0 0c-35,-22 -49,-31 -103,-62l9 -12 0 0 2 -3 -5 0c-9,0 -22,0 -31,0 -52,-28 -62,-33 -97,-54l0 0c0,1 0,1 0,1 52,30 95,53 95,53 -24,1 -63,1 -122,0l-1 0 -7 0 -1 0 -12 0c-22,-31 -39,-53 -52,-84l0 0c-1,0 -1,1 -1,1 10,21 17,35 52,83 -41,0 -54,-1 -99,-2 15,-31 22,-46 38,-80 0,0 0,0 0,0 -13,25 -19,37 -38,80 -14,0 -33,-1 -47,-1 50,-49 62,-61 82,-80 0,-1 0,-1 0,-1 -24,24 -24,24 -83,81 -28,-1 -37,-1 -68,-3l-4 0c0,0 0,0 0,0l2 3c19,14 21,16 40,29l-5 5c0,1 0,1 0,1l0 0 5 -5c26,16 29,17 52,31 -6,14 -13,33 -19,47 0,0 1,0 1,0l0 0c6,-14 13,-33 19,-47 32,18 34,19 58,31l-18 18c0,0 1,0 1,0l18 -18c12,6 29,14 41,20l0 0 0 0 8 4 2 1 30 14 0 0 0 0c-28,16 -48,27 -93,52l-4 2m150 -32c-42,9 -70,15 -145,30 30,-17 61,-34 91,-52l1 0 6 3 6 2c12,5 29,12 41,17l2 1m72 -17l0 0c-5,0 -9,1 -14,3l14 -3zm12 -4l-12 3c2,0 3,0 5,0l8 -2 0 0 0 0 0 0m-127 -20c-13,0 -31,1 -44,2l-8 -4 0 0 0 0c-13,-6 -29,-14 -42,-20l-1 -1c-34,-17 -38,-19 -58,-30 16,-39 16,-39 25,-60 42,1 55,2 99,2l1 0 11 1 2 0 7 0 2 15c0,0 1,0 1,0l-2 -15c27,0 72,0 123,0l25 14c-14,15 -36,38 -95,76 -11,-14 -27,-32 -39,-46l0 0c0,0 0,0 0,0 11,14 27,33 39,47 -9,5 -20,12 -29,18l-17 1 0 0 1 0 0 0 0 0 0 0 0 0 0 0 0 0 0 0 0 0 0 0 1 0 0 0 0 0 0 0 0 0 0 0 0 0 0 0 0 0 0 0 1 0 0 0 0 0 0 0 0 0 0 0 0 0 0 0 1 0 0 0 0 0 0 0 0 0 0 0 0 0 0 0 0 0 0 0 1 0 0 0 0 0 0 0 0 0 0 0 0 0 0 0 0 0 0 0 1 0 0 0 0 0 0 0 0 0 0 0 0 0 0 0 1 0 0 0 0 0 0 0 0 0 0 0 0 0 0 0 0 0 0 0 1 0 0 0 0 0 0 0 0 0 0 0 0 0 0 0 0 0 0 0 1 0 0 0 0 0 0 0 0 0 0 0 0 0 0 0 1 0 0 0 0 0 0 0 0 0 0 0 0 0 0 0 0 0 0 0 1 0 0 0 0 0 0 0 0 0 0 0 0 0 0 0 0 0 0 0 1 0 0 0 0 0 0 0 0 0 0 0 0 0 0 0 1 0 0 0 0 0 0 0 0 0 0 0 0 0 0 0 0 0 0 0 1 0 0 0 0 0 0 0 0 0 0 0c-17,1 -39,2 -56,3l29 14 0 0 6 -4 22 -13 0 0 0 0 -1 0 0 0m121 133c0,0 -1,0 -1,0 2,15 4,36 5,51 0,0 1,0 1,0 -1,-15 -3,-36 -5,-51zm-1 -7l0 0c0,0 0,0 -1,0 0,2 1,4 1,6 0,0 1,0 1,0l-1 -6 0 0zm-351 -95l0 0c0,0 -1,0 -1,0 0,2 1,6 1,8 0,0 1,0 1,0l-1 -8zm31 -2l0 0c-1,2 -2,6 -3,8 0,0 0,1 1,1 1,-3 2,-6 3,-9 0,0 -1,0 -1,0zm277 3l0 0c0,0 -1,1 -1,1 1,1 2,3 3,4 0,-1 1,-1 1,-1l-3 -4zm-310 -14l0 0c0,0 -1,0 -1,0 0,4 1,8 2,12 0,0 0,0 1,-1l-2 -11zm40 -9l0 0 0 0zm19 35l0 0 9 -9c0,-1 0,-1 0,-1 -3,3 -7,6 -10,9 1,0 1,0 1,1zm76 -248l-9 -2c-25,-6 -82,-19 -74,-30 -9,2 -13,3 -14,3 1,-2 31,-9 35,-9 -1,1 -1,1 -17,4 -1,1 -2,1 -3,1 -3,6 3,15 73,30l9 2 0 1zm-83 -32l1 -2 2 0 -2 0 -1 2zm348 928c20,-12 24,-15 32,-21 3,-2 6,-3 8,-4l1 -1c2,-2 4,-4 5,-5 0,0 -1,0 -1,0 -1,2 -3,4 -5,5 -2,1 -4,2 -7,4 1,-1 2,-2 3,-2 -4,2 -6,3 -7,3 0,0 1,-1 14,-11 5,-4 18,-14 20,-14 0,0 0,0 0,0 -1,2 -17,15 -27,22l-3 2c-14,7 -47,16 -141,26 0,0 0,0 -1,1 71,-7 118,-16 141,-26 -17,12 -18,13 -31,20l-1 1c-50,28 -93,40 -124,49 0,0 0,0 0,-1 68,-18 97,-33 124,-48zm-744 -327l0 0 -1 -3 0 0 0 0c0,-2 0,-3 0,-3l1 5 0 0 0 1 0 -1 0 0 -1 -5c-4,-21 -8,-49 -10,-71l0 -2 0 -2 0 -1 0 1 0 -1c0,-4 -1,-8 -1,-12 0,-9 0,-19 0,-27 1,-17 2,-32 3,-46l0 0c0,-1 0,-2 0,-2 -3,34 -3,63 -2,90 2,22 6,51 10,73l0 0c0,0 0,0 0,0l0 0 0 0c0,0 0,2 1,4l0 1c1,4 2,9 2,10 0,0 0,0 0,-2l0 0c-1,-2 -1,-5 -2,-7zm230 -542c-3,2 -6,4 -8,5l0 0 -11 7 -1 1 11 -7 0 0c-2,1 -4,2 -4,3 1,-1 32,-20 32,-20 -1,1 -9,5 -19,11zm546 14c4,2 4,2 4,2 0,0 -8,-5 -8,-6 0,1 0,1 4,4zm-23 -15c1,1 3,3 4,3 0,-1 -8,-5 -9,-6 0,0 0,1 5,3zm178 664c-5,10 -7,18 -6,18 -14,24 -26,43 -38,59 -1,0 -1,1 -1,1 -3,4 -6,7 -8,11 -1,0 -1,1 -2,2 -9,10 -18,20 -28,31l-1 1c-7,7 -15,14 -24,23l-1 0c-5,5 -10,9 -16,14l0 0c0,0 1,0 1,0 5,-4 10,-9 15,-13l1 -1c9,-8 16,-16 24,-23l1 -1c10,-11 19,-21 28,-31 0,0 1,-1 1,-2 3,-4 6,-7 9,-11l1 -2c13,-16 24,-35 38,-58 1,0 1,-1 1,-1 1,0 9,-11 14,-21 0,-1 0,-2 1,-2 2,-4 3,-8 4,-10 0,-1 0,-1 0,-2 0,0 0,0 0,0l1 -1c0,0 0,-1 0,-1 2,-4 4,-7 6,-11 0,0 0,-1 1,-2 24,-48 31,-82 39,-121l0 -3c-10,63 -30,105 -31,107 -3,5 -6,10 -9,16 0,0 0,1 0,1 -1,1 -1,2 -2,3 0,0 -1,1 -1,2 -1,3 -3,6 -4,9 0,0 0,-1 0,-1 -3,0 -10,12 -14,20zm-134 170l0 0c2,-3 7,-5 10,-7 1,-1 3,-2 4,-3l-1 1c-4,3 -10,7 -14,9 0,0 0,0 1,0zm9 -8l0 0c4,-4 9,-9 15,-13l0 -1c7,-5 13,-11 19,-16l1 -1c5,-4 9,-7 13,-11l1 -1c1,-1 2,-2 3,-3 9,-9 20,-22 29,-32l0 -1 -1 2c-13,14 -23,25 -33,36l-1 1c-5,5 -11,10 -17,16l0 0c-5,4 -10,9 -16,13l0 1c-4,3 -9,6 -14,10 0,0 1,0 1,0zm134 -168l0 0 1 0c1,-3 4,-5 6,-7 2,-2 3,-4 3,-6l0 2c-3,4 -7,9 -10,12l0 0c0,0 0,0 0,-1zm-23 47l0 0 1 0c2,-5 5,-11 8,-17l1 -1c2,-5 4,-10 6,-14 0,-1 0,-1 0,-1 -1,4 -3,8 -5,12l-1 2c-3,6 -6,13 -9,18l-1 1zm-117 126c4,-3 9,-7 14,-10l0 0 1 -1c3,-2 6,-5 9,-7l-1 1c-3,2 -5,4 -8,6l0 0c-6,4 -11,9 -16,12 0,0 0,-1 1,-1zm2 -2l0 0c5,-4 11,-8 17,-13l0 0c4,-3 8,-7 12,-10l1 0c3,-3 5,-5 8,-8l1 0 -2 1 0 0 0 0c-2,2 -5,5 -8,8l-1 0c-4,3 -8,7 -12,10l0 0c-6,4 -11,9 -16,12 0,0 0,0 0,0zm-511 -491l0 -1 -21 12 0 0 -26 15c0,1 0,1 0,1 1,0 1,0 1,0l0 0 26 -16 0 0 20 -11zm68 -38c2,-1 4,-2 6,-3 2,-1 4,-3 7,-4l0 0 -8 4 -5 3c-5,2 -10,5 -15,8 0,0 0,0 0,0 6,-3 11,-6 15,-8zm19 -11c1,0 1,0 1,0 4,-2 7,-4 12,-6 0,0 0,-1 0,-1 -4,3 -9,5 -13,7zm267 -56l0 0c0,0 0,0 0,0 -2,0 -3,-1 -5,-2l0 0c0,1 0,1 0,1 2,0 3,1 5,1 0,0 0,0 0,0zm-574 225l0 3 -2 -1 2 -2zm31 -174l0 0 6 -16c-1,0 -1,0 -2,0 -1,5 -4,11 -5,16 0,0 1,0 1,0zm7 -20l0 0 2 -4c-1,0 -1,-1 -2,-1 0,2 -1,4 -2,5 1,0 1,0 2,0zm524 598c8,-27 11,-37 9,-82 1,41 0,52 -9,82 0,0 0,0 0,0zm8 -83l0 0 -2 -18 2 -3c0,0 0,0 0,0 -1,0 -1,1 -2,2l0 -3c0,0 -1,0 -1,0 1,1 1,2 1,3l0 1 2 18c0,0 0,0 0,0zm-14 -77l0 0 -4 -13 9 3c0,0 0,-1 0,-1l0 0c0,0 1,0 1,0 -3,-1 -7,-2 -10,-4l-4 -12 0 0c0,1 0,1 0,1 1,3 2,8 3,11l1 2 3 13c1,0 1,0 1,0zm-8 -28l0 0c-6,-18 -15,-42 -21,-60 12,7 29,15 41,22l7 14c0,-1 0,-1 1,-1l0 0c0,0 0,0 0,0 -2,-4 -4,-8 -6,-12l14 8c0,0 0,0 0,0l-14 -8c-20,-38 -23,-44 -51,-91l0 0c0,0 -1,0 -1,0 11,19 26,45 36,64 4,8 8,19 14,25 -13,-6 -29,-15 -41,-21l-2 -5 -1 -2c-17,-44 -17,-44 -29,-71l0 -2 -1 -3 0 0 1 3 0 2c19,45 20,49 29,71l1 2 1 4c-33,-17 -33,-17 -92,-48l12 -29c-1,0 -1,0 -1,0 -4,9 -9,20 -12,29 -13,-7 -31,-16 -44,-23l0 0c13,7 30,16 44,23l1 1 0 0c62,32 62,32 92,48 7,18 15,42 21,60 0,0 0,0 1,0zm-246 -63l0 0c39,-33 39,-33 119,-96 -23,18 -75,59 -120,96 1,0 1,0 1,0zm-377 -267c0,-3 1,-6 1,-8 1,-3 1,-6 2,-9 2,-12 5,-24 9,-36 1,-4 3,-8 4,-13 3,-8 6,-17 9,-26l0 0 0 0 3 -7 0 0 -3 7c-9,27 -19,56 -25,92zm461 197l0 0 1 -1 -32 -16 0 0 31 17zm352 -21l-1 1 0 0 0 0 1 -1zm-1 1c-34,35 -37,39 -77,75 -9,-6 -22,-15 -31,-21 5,-57 5,-58 7,-115 59,34 72,42 101,61zm-386 1l0 0 1 0c-42,-23 -49,-26 -76,-42l-6 -4 -7 -2c-17,-5 -39,-11 -56,-17l0 0c17,6 39,13 55,18l7 2 7 3c44,25 45,26 75,42zm-144 -65l0 0c0,0 0,0 0,0 -1,0 -3,0 -4,-1l0 0c0,0 0,0 0,0 1,1 2,1 4,2 0,0 0,-1 0,-1zm-5 -1l0 0c0,0 0,0 0,0 -1,0 -2,-1 -3,-1l0 0c0,0 0,0 0,0 1,1 2,1 3,1 0,0 0,0 0,0zm-4 -1l0 0c0,0 0,0 0,0 -1,-1 -2,-1 -3,-1l0 0c0,0 0,0 0,0 1,0 2,1 3,1 0,0 0,0 0,0l0 0zm-4 -2l0 0c0,0 0,0 0,0 -1,0 -3,-1 -4,-1l0 0c0,0 0,0 0,0 1,1 2,1 4,2 0,-1 0,-1 0,-1zm584 -1l0 0 0 0 -24 0 0 0c0,0 0,0 0,0 7,0 17,0 24,0zm-144 -3l-18 -1 -1 0 19 -3 0 4zm-21 -1l-1 0 1 0 0 0zm-9 0c-13,-1 -30,-1 -43,-2l30 -10 20 11 -7 1zm-488 -21l0 0c0,0 0,0 0,0 -1,0 -2,-1 -3,-1l0 0c0,0 0,0 0,0 1,0 2,1 3,1 0,0 0,0 0,0 0,0 0,0 0,0 0,0 0,0 0,0 0,0 0,0 0,0 0,0 0,0 0,0 0,0 0,0 0,0 0,0 0,0 0,0 0,0 0,0 0,0 0,0 0,0 0,0zm-4 -2l0 0c0,0 0,0 0,0 -1,0 -1,0 -1,0l-2 -1 0 0c0,1 0,1 0,1 1,0 2,0 3,1 0,-1 0,-1 0,-1l0 0zm-5 -1l0 0 0 0 -2 -1 0 0c0,0 0,0 0,0 1,0 2,1 2,1zm-2 -1l0 0c0,0 0,0 0,0 -1,-1 -3,-1 -4,-2l0 0c0,1 0,1 0,1 1,0 3,1 4,1 0,0 0,0 0,0zm103 4l0 0 3 1c0,0 0,-1 0,-1 -1,0 -2,0 -3,0l0 0c0,0 0,0 0,0zm-4 0l0 0 3 0c0,0 0,0 0,0 -1,0 -2,0 -3,0l0 0c0,0 0,0 0,0zm-5 0l0 0 4 0c0,0 0,0 0,0 -1,0 -3,0 -4,-1l0 1c0,0 0,0 0,0zm-5 -1l0 0 4 1c0,0 0,-1 0,-1 -1,0 -3,0 -4,0l0 0c0,0 0,0 0,0zm-77 -6l0 0c0,0 0,0 0,0 -1,0 -2,0 -4,0l0 0c0,0 0,0 0,0 2,0 3,0 4,0 0,0 0,0 0,0zm-5 -1l0 0c0,0 0,0 0,0 -1,0 -2,0 -3,0l0 0c0,0 0,0 0,0 1,1 2,1 3,1 0,0 0,0 0,-1zm-3 0l0 0c0,0 0,0 0,0 -1,0 -3,0 -3,0l0 0c0,0 0,0 0,0 0,0 2,0 3,0 0,0 0,0 0,0zm-4 0l0 0c0,0 0,0 0,0 -1,0 -2,0 -3,-1l0 0c0,1 0,1 0,1 1,0 2,0 3,0 0,0 0,0 0,0zm-1 -10l0 0 -8 5 -5 3 -4 2 0 0 4 -1 5 2 5 2c0,0 0,-1 0,-1 -1,0 -3,-1 -5,-1l-4 -2 5 0 5 1c0,0 0,0 0,-1 -2,0 -4,0 -5,0l-6 -1 5 -3 7 -5c1,0 1,0 1,0zm4 -4l0 0c0,0 0,0 0,0 -1,1 -3,2 -4,3 0,0 0,1 0,1 1,-1 3,-2 4,-3 0,0 0,0 0,-1zm6 -3l0 0c0,0 0,0 0,0 -2,1 -4,2 -5,3 0,0 0,0 0,0 1,-1 3,-2 4,-3 0,0 0,0 1,0zm6 -5l0 0c0,0 1,0 1,0 -2,1 -4,3 -6,4 0,0 0,0 0,1 1,-2 3,-3 5,-4 0,0 0,0 0,-1zm2 -1l0 0c10,-5 22,-13 31,-19l0 0c0,0 0,0 -30,19 0,0 0,0 -1,0zm34 -20l0 0 5 -4c0,0 0,0 0,0 -2,1 -4,2 -6,4 0,0 0,0 1,0zm7 -5l0 0 5 -3c-1,0 -1,0 -1,0 -1,1 -3,2 -5,3 0,0 1,0 1,0zm5 -3l0 0 5 -3c0,0 0,0 0,0 -2,1 -4,2 -5,3 0,0 0,0 0,0zm712 14c-16,-13 -32,-25 -63,-42 24,-17 25,-18 36,-28 9,21 20,49 27,70zm-68 -45l3 2 -3 2c0,-1 0,-3 0,-4zm4 3c22,13 43,25 64,42l2 9c-3,16 -8,36 -13,51 -25,4 -27,5 -49,7 0,-36 -2,-72 -7,-107l0 0 3 -2zm65 43l3 2 -1 5 -2 -7zm3 3c12,11 26,24 34,41l1 2 -1 1c-11,4 -12,4 -24,8 -3,-14 -7,-33 -11,-47l1 -5zm9 52c-7,1 -16,3 -23,4 4,-15 10,-35 13,-50 3,14 7,32 10,46zm-107 -115l0 0 0 0c-44,-21 -58,-28 -116,-51l0 0c60,25 71,29 116,51zm-117 -52l0 0c0,0 0,0 0,0 -2,0 -3,-1 -5,-2l0 0c0,1 0,1 0,1 1,0 3,1 5,1 0,0 0,0 0,0zm-331 -147c-28,-16 -32,-18 -51,-31 9,-8 21,-20 30,-29 14,1 32,1 47,1 -16,35 -17,38 -26,59zm-52 -31c-22,-15 -25,-18 -39,-30l-3 -2 4 1c25,1 34,1 68,2 -9,9 -21,20 -30,29zm323 -25c9,0 22,-1 32,-1l3 0 -1 2 -9 12 -25 -13zm-263 846c-4,-2 -10,-2 -14,-3 -111,-23 -144,-37 -163,-44l0 0c1,0 28,17 178,48 -1,0 -1,-1 -1,-1zm575 -408l0 1c9,-73 2,-110 -8,-160l0 0c17,73 13,111 8,159zm-574 405l0 0c-14,-17 -15,-19 -25,-37 0,-1 0,-1 -1,-1 13,23 14,25 26,38 0,0 0,0 0,0zm108 -17c-20,4 -28,5 -44,8 -7,-19 -8,-20 -15,-36 29,-21 43,-31 99,-67 7,7 16,16 23,23 -25,30 -34,41 -63,72zm258 -49l0 0zm-167 -78l0 0 19 -12c0,0 0,0 -1,-1 -5,4 -13,9 -19,13 0,0 0,0 1,0zm126 -32l0 0 0 -1 -18 -8c0,0 0,0 0,0 0,0 -1,0 -1,0 0,0 0,0 0,0 -2,-1 -4,-2 -6,-3l0 0c0,1 0,1 -1,1 8,3 18,7 26,11zm-522 120l0 0c-64,-51 -88,-89 -106,-161 0,0 -1,0 -1,0 18,72 43,110 107,160 -1,0 0,1 0,1zm169 11l0 0c-20,-50 -33,-103 -36,-210 -1,0 -1,0 -2,0 4,86 11,149 37,210 0,0 1,0 1,0zm398 -215l0 0 1 -2c-39,30 -39,30 -63,46 0,0 0,1 0,1 49,-34 61,-43 62,-45zm-667 26l0 0c38,-11 77,-20 206,-43 0,-1 0,-1 0,-1 -40,7 -146,25 -206,43 0,0 0,0 0,1 0,0 0,0 0,0zm259 -74l0 0 2 -1 -32 -12 -2 -34 -2 0 3 34c-13,-5 -31,-12 -44,-17l-1 1c13,5 31,12 45,17l0 9c1,0 1,0 1,0 0,0 0,0 0,0l0 0 0 0 0 0 0 0 0 0 0 0 0 0 0 -8 30 11zm487 -41l0 0c-10,-8 -24,-19 -34,-26l-1 1c11,8 24,18 34,26 0,0 0,0 1,-1zm-567 11l0 0 2 -1c-43,-17 -83,-33 -136,-58l0 1c89,42 134,58 134,58zm46 -20l0 0 1 0c0,-21 -1,-49 -2,-70l0 0c0,0 0,0 -1,0 1,21 1,49 2,70zm267 -101l0 0 4 -1c0,0 0,-1 0,-1 -1,0 -3,1 -4,1 0,0 0,1 0,1zm-141 -16l0 0c0,0 0,0 0,0 -1,-1 -2,-1 -3,-2l0 0c0,1 0,1 0,2 1,0 2,1 3,1 0,0 0,0 0,-1zm-4 -2l0 0c0,0 0,0 0,-1 -5,-2 -11,-6 -16,-9l0 0c0,1 0,1 -1,2 5,2 12,6 17,9 0,-1 0,-1 0,-1zm97 -50l0 0 21 11c-7,-5 -13,-9 -21,-11zm119 62l-20 -11c12,-4 29,-10 41,-14l0 22 -21 3zm300 -100l0 0 -4 -15 0 0c0,0 0,0 1,6 0,0 0,0 1,0 0,0 0,1 0,2 0,0 0,0 2,7 0,0 0,0 0,0zm-5 -19l0 0c0,-1 -1,-3 -2,-5l0 1c0,0 0,0 0,0 1,1 1,3 2,5 0,0 0,-1 0,-1zm-38 -33l0 0 1 -2c0,0 0,-1 0,-1 -1,1 -1,1 -2,2 1,0 1,1 1,1zm-757 -47l0 0c0,0 0,0 0,0 -4,-4 -10,-9 -14,-13l0 0c0,0 -1,1 -1,1 4,4 10,9 14,13 1,0 1,0 1,-1zm-16 -15l0 0c0,0 0,0 0,0 -1,-1 -2,-2 -2,-2l0 0c-1,0 -1,0 -1,1 1,0 2,1 2,2 1,0 1,0 1,-1zm18 -36l0 0 4 0c0,-1 0,-1 0,-2 -1,0 -3,0 -4,1 0,0 0,0 0,1zm6 -1l0 0 5 0c0,0 0,-1 1,-1 -2,0 -4,0 -5,0 0,1 -1,1 -1,1zm7 0l0 0 14 0c0,-1 0,-1 0,-1 -2,0 -5,0 -7,0 0,0 0,0 0,0 0,0 -1,0 -1,0 0,0 0,0 0,0 -2,0 -4,0 -6,0 0,0 0,1 0,1zm87 -3l0 0c1,0 1,-1 1,-1 -12,0 -73,2 -73,2 0,1 0,1 0,1 30,0 30,0 72,-2zm404 6c43,-11 84,-22 123,-39 0,-1 0,-1 0,-1 -25,10 -48,20 -124,39l0 0 0 0 0 0 0 0 0 0 0 0 0 0 0 0 0 0 0 0 0 0 0 0 0 0 0 0 0 0 0 0 0 0 0 0 0 0 0 0 0 0 0 0 0 0 0 0 0 0 0 0 0 0 0 0 0 0 0 0 0 0 0 0 0 0 0 0 0 0 0 0 0 0 0 0 0 0 0 0 0 0 0 0 0 0 0 0 0 0 0 0 0 0 0 0 0 0 0 0 0 0 0 0 0 0 0 0 0 0 0 0 0 0 0 0 0 0 0 0 0 0 0 0 0 0 0 0 0 0 0 0 0 0 0 0 0 0 0 0 0 0 0 0 0 0 0 0 0 0 0 0 0 0 0 0 0 0 0 0 0 0 0 0 0 0 0 0 0 0 0 0 0 0 0 0 0 0 0 0 0 0 0 0 0 0 0 1 0 0 0 0 0 0 0 0 0 0 0 0 0 0 0 0 0 0 0 0 0 0 0 0 0 0 0 0 0 0 0 0 0 0 0 0 0 0 0 0 0 0 0 0 0 0 1 0 0 0 0 0 0 0 0 0 0 0 0 0 0 0 0 0 0 0 0 0zm-274 714l0 0c-166,-91 -260,-187 -291,-219l0 0c103,107 215,178 291,219 0,0 0,0 0,0zm101 -377l0 0 2 -3c-1,0 -1,0 -2,-1 0,1 -1,3 -1,4 0,0 1,0 1,0zm82 -24l0 0c0,0 0,0 0,0 -1,-1 -2,-2 -3,-2l0 0c0,0 -1,1 -1,1 1,0 2,1 3,2 0,-1 1,-1 1,-1zm360 -157l0 0 1 -9c0,0 0,0 0,0 -1,2 -1,5 -1,8 0,0 0,0 0,1zm1 -10l0 0 0 -6c0,0 0,-1 0,-1 0,2 0,5 0,7 0,0 0,0 0,0l0 0zm1 -8l0 0 0 -6c0,0 -1,0 -1,-1 0,2 0,4 0,6 0,0 0,0 1,1zm0 -9l0 0 0 -5c0,0 -1,0 -1,0 0,1 0,3 0,4 0,0 1,1 1,1zm-305 342c0,0 0,0 0,0 -1,-2 -2,-5 -3,-8l0 0c-1,1 -1,1 -1,1 1,2 2,5 3,7 0,0 1,0 1,0zm-4 -9l0 0c0,0 0,0 0,0 -1,-3 -3,-7 -5,-10l0 0c0,0 0,0 -1,1 2,3 4,7 5,10 1,0 1,0 1,-1zm-63 -115l0 0c0,0 0,-1 0,-1 -2,-4 -6,-10 -9,-15l0 0c0,0 -1,0 -1,1 3,4 6,10 9,15 0,0 1,0 1,0zm-10 -17l0 0c0,0 0,0 0,0 0,-1 -1,-2 -1,-3l-1 0c0,0 0,0 -1,0 1,1 2,3 2,3 1,0 1,0 1,0zm35 -71l0 0 3 0c0,-1 0,-1 0,-2 -1,1 -2,1 -3,1 0,0 0,1 0,1zm109 -156l0 0c0,0 0,0 0,0 -1,-2 -2,-3 -3,-5l0 0c0,1 0,1 -1,1 1,1 3,3 3,4 1,0 1,0 1,0zm-531 -129l0 0 4 -2c0,0 0,0 0,-1 -1,1 -3,1 -4,2 0,0 0,1 0,1zm7 -3l0 0 13 -6c0,0 0,0 0,-1 -4,2 -9,4 -13,6 0,0 0,1 0,1zm141 1l0 0c0,0 1,0 1,0 -1,-13 -2,-30 -2,-43l0 0c0,0 -1,0 -1,0 0,13 1,30 2,43zm-127 -7l0 0c36,-15 50,-21 110,-45 0,0 0,0 0,0 -30,11 -54,20 -110,44 0,0 0,0 0,0 0,0 0,1 0,1zm114 -56l0 0c-41,-18 -58,-26 -83,-42l0 0c0,0 -1,1 -1,1 24,15 38,22 83,41 0,0 1,0 1,0zm-76 -51l0 0c72,-26 145,-50 217,-77 -40,13 -217,76 -217,76 1,0 0,1 0,1zm-126 101c0,0 0,0 0,0 0,-1 0,-3 0,-3l0 0c-1,0 -1,0 -1,0 0,1 0,3 0,3 0,0 1,0 1,0zm84 -142l0 0c-40,29 -78,62 -85,122 0,-1 1,-1 1,-1l0 0c3,-5 2,-14 3,-19 3,-20 19,-41 27,-53 5,-8 20,-25 54,-49zm-84 137l0 0c0,0 0,0 0,0 0,-2 0,-3 0,-4l-1 0c0,0 0,0 0,1 0,1 0,2 0,3 0,0 0,0 1,0zm-1 -5l0 0c1,-1 1,-3 1,-5l-1 0c0,0 0,1 0,1 0,0 0,0 0,0 0,1 0,3 0,4 0,0 0,0 0,0zm1 -5l0 0c1,-1 0,-4 0,-6l0 0c0,1 0,1 -1,1 0,0 0,0 0,0 0,2 0,4 0,5 0,0 0,0 1,0zm696 -2c-8,-39 -13,-61 -46,-104 24,33 37,52 45,104 1,0 1,0 1,0zm-107 -78l0 0c-14,-30 -32,-67 -84,-99 28,19 60,42 83,99 0,0 1,0 1,0zm52 -33l0 0c0,0 -56,-35 -136,-67l0 0c31,13 79,33 136,67 0,0 0,0 0,0zm-271 900l0 0c56,-22 77,-31 120,-49 -91,37 -91,37 -120,48 0,0 0,0 0,1zm118 -10l0 0c16,-6 31,-18 16,-40l-1 0c0,0 0,0 0,0 7,12 15,26 -15,41 0,-1 0,-1 0,-1zm131 -49l0 0z"/>
            </g>
                    <g class="dark-points">
                <path d="M1975 487c-7,17 -30,23 -35,10 -5,-12 9,-32 26,-32 11,1 13,12 9,22l0 0z"/>
                <path d="M2108 346c-4,11 -17,14 -21,7 0,-2 -1,-5 2,-10 2,1 6,1 9,2l0 -1 -9 -2c3,-5 8,-8 13,-8 6,1 7,8 6,12z"/>
                <path d="M1865 433c-10,12 -24,18 -24,11 -1,-8 17,-26 28,-26 6,1 1,10 -4,15z"/>
                <path d="M2508 943c-4,17 -19,26 -24,16 -7,-12 3,-37 16,-38 7,0 11,10 8,22z"/>
                <path d="M2194 472c0,13 -15,19 -25,9 -11,-10 -6,-26 7,-27 0,0 0,0 0,0 9,1 17,9 18,18z"/>
                <path d="M1999 1003c-1,24 -27,33 -45,15 -18,-18 -9,-47 15,-47 0,0 0,0 0,0l0 0 0 0 0 0 0 0 0 0 0 0 0 0 0 0c22,2 30,21 30,32z"/>
                <path d="M1743 1053c4,11 1,17 -6,14 -13,-6 -25,-32 -16,-36 1,0 1,0 2,0 6,1 15,11 20,22z"/>
                <path d="M2452 526c6,11 3,19 -5,16 -15,-5 -26,-30 -18,-34 1,0 2,0 2,0 8,0 17,10 21,18z"/>
                <path d="M2257 1243c-8,8 -24,14 -24,7 0,-6 14,-17 24,-18 6,0 6,5 1,11 -1,0 -1,0 -1,0z"/>
                <ellipse transform="matrix(-0.727555 1.33409 -1.33409 -0.727555 2553.79 1033.04)" rx="14" ry="2"/>
            </g>
            <g class="light-points">
                <path d="M1763 1068c2,4 1,7 -3,5 -5,-2 -10,-13 -6,-14 0,0 1,0 1,0 4,0 7,5 8,9zm337 226c0,2 -3,3 -4,1 -1,-1 0,-3 2,-3 2,0 2,1 2,2l0 0zm-13 -9c0,2 -3,3 -5,1 -2,-2 -2,-4 1,-4 0,0 0,0 0,0 2,0 4,2 4,3zm-19 -12c1,2 -2,3 -5,2 -3,-2 -3,-5 -1,-6 1,0 1,0 1,0 3,0 5,2 5,4l0 0zm-23 -15c1,3 -2,5 -5,3 -4,-2 -5,-6 -2,-7 0,0 1,0 1,0 3,0 5,3 6,4zm-28 -16c2,3 -1,4 -4,3 -4,-2 -7,-7 -4,-8 0,0 1,0 1,0 4,0 7,3 7,5zm-31 -19c2,3 0,5 -4,3 -5,-1 -8,-7 -5,-9 0,0 1,0 1,0 4,0 7,4 8,6zm-34 -21c2,3 0,5 -4,4 -5,-2 -9,-9 -6,-10 1,-1 1,-1 2,-1 4,1 7,4 8,7zm-36 -23c1,3 0,5 -4,4 -6,-2 -10,-9 -7,-11 1,0 1,0 2,0 4,0 7,4 9,7zm-38 -26c2,4 0,7 -4,5 -6,-2 -11,-10 -7,-12 1,0 1,0 2,0 4,1 7,5 9,7zm-39 -27c2,5 0,7 -4,6 -6,-3 -11,-12 -7,-13 1,0 1,0 2,0 4,0 7,4 9,7zm-38 -28c2,4 0,7 -4,5 -5,-2 -10,-12 -6,-13 0,0 0,0 1,0 4,0 8,5 9,8z"/>
                <path d="M2409 677c1,4 -3,6 -6,3 -3,-3 -3,-8 1,-9 0,0 0,0 0,0 4,0 5,4 5,6zm8 -276c2,1 4,3 4,3 0,0 -8,-6 -8,-6 0,0 2,2 4,3zm20 17c1,1 3,2 3,3 0,0 -8,-7 -8,-7 1,0 4,3 5,4zm17 17c0,0 3,3 3,3 0,1 0,1 0,1 -1,-1 -8,-7 -8,-8 0,0 0,0 0,0 1,0 3,2 5,4zm14 19c0,0 3,3 3,3 -1,1 -8,-6 -8,-7 0,0 0,0 0,0 1,0 4,2 5,4l0 0zm11 19c2,2 3,4 2,4 -1,-1 -7,-8 -7,-8 0,0 0,0 0,0 1,0 4,2 5,4l0 0zm8 20c1,2 2,4 1,4 -2,0 -7,-8 -6,-8 0,0 0,0 0,0 1,0 4,2 5,4zm4 21c1,2 2,4 1,4 -3,0 -7,-7 -6,-8 0,-1 0,-1 0,-1 2,0 4,3 5,5zm0 22c2,2 2,4 0,4 -3,-1 -6,-8 -5,-9 0,0 0,0 0,0 2,0 4,3 5,5zm-3 22c1,3 0,5 -1,4 -3,-1 -6,-7 -5,-9l5 4c0,0 0,0 1,1zm-8 23c1,3 0,5 -2,4 -3,-2 -6,-8 -3,-9 0,0 0,0 0,0 2,0 4,3 5,5zm-11 23c-1,-1 -2,-4 -4,-5 0,3 1,7 2,9 2,0 2,-2 2,-4zm-4 4l0 0 -2 -9 0 0c-3,1 -1,7 2,9zm-12 20c1,3 -2,6 -4,4 -4,-3 -5,-9 -1,-10 0,0 0,0 0,0 3,1 4,4 5,6zm-20 24c1,4 -2,6 -5,4 -4,-3 -4,-9 0,-9 0,0 0,0 0,0 3,0 5,3 5,5z"/>
                <path d="M1856 1236c13,8 15,9 15,10 -3,-1 -33,-19 -35,-22 0,0 0,0 0,0 2,0 7,4 20,12z"/>
                <path d="M2046 1287c2,2 3,4 1,4 -5,-1 -14,-7 -12,-9 1,0 1,0 2,0 3,0 7,3 9,5z"/>
                <path d="M2112 1303c-3,2 -11,5 -11,0 0,-3 4,-6 9,-6 4,0 5,3 2,5 0,1 0,1 0,1z"/>
                <path d="M2227 1293c-9,3 -18,5 -20,5 2,-1 38,-11 38,-11 0,0 0,0 0,0 -1,1 -12,5 -18,6z"/>
                <path d="M1938 433c0,0 0,0 0,0 -1,-1 -3,-1 -4,-1l3 2c0,0 0,0 1,-1zm-4 -1l0 0 4 0c2,-3 1,-5 -1,-5 -5,1 -10,8 -8,10 1,1 4,0 7,-2 -1,-1 -2,-2 -2,-3 0,0 0,0 0,0z"/>
                <path d="M2293 1023c1,-3 0,-5 -1,-5 -1,1 -4,3 -6,5l-5 -3c-4,5 1,11 6,9 3,-1 5,-3 6,-6zm-7 -1l0 0 6 -4c-1,-1 -2,-2 -5,-2 -2,0 -4,1 -6,3 2,1 4,2 5,3z"/>
                <path d="M2158 1239c-2,3 -7,4 -8,1 -1,-2 2,-6 6,-6 3,0 3,3 2,5z"/>
                <path d="M1966 852c0,0 0,-1 0,-1 -2,-1 -5,-2 -7,-3l-7 -2 0 0c-1,7 6,12 12,8 0,0 1,-1 2,-2zm1 -4l0 0c0,-4 -3,-8 -8,-8 -3,0 -5,2 -6,5 2,1 4,2 7,2l6 4c0,0 1,-1 1,-3z"/>
                <path d="M1787 789c0,0 0,0 0,0 -2,0 -4,0 -5,0l4 2c0,-1 0,-1 1,-2zm-1 3l0 0c0,-1 0,-1 0,-1 -1,-1 -4,-2 -5,-2l-4 1 0 1 -2 0c2,7 7,7 10,3 1,-1 1,-2 1,-2zm-5 -4l0 0 6 1c0,-1 -1,-3 -1,-4 -1,1 -3,2 -5,3zm0 0l0 0 5 -3c-2,-4 -4,-4 -5,-4 -3,0 -6,3 -6,7 1,0 2,0 2,1l0 1 4 -2z"/>
                <path d="M1643 617c0,1 -2,6 -3,6 0,0 0,0 0,0l0 0 0 0 0 0 3 -7 0 0 -3 7c0,-1 6,-14 6,-14 0,1 -3,7 -3,8z"/>
                <path d="M2477 829l3 -5 -5 0 0 0c0,2 1,4 2,5zm9 -5l0 0c0,0 0,-1 0,-1 -2,0 -4,0 -5,1l-4 5c3,5 8,2 9,-4 0,0 0,-1 0,-1zm-5 -1l0 0 5 0c0,-5 -2,-8 -6,-8 -2,1 -4,4 -5,8 2,0 4,0 6,0z"/>
                <path d="M2333 440l1 -2 -3 0c0,1 1,2 2,2zm6 -2l0 0c-2,-2 -5,-5 -8,-5 -2,0 -2,2 -1,5 2,0 3,0 5,0l-2 3c4,3 7,3 7,0 0,0 0,-1 -1,-3z"/>
                <path d="M2246 331c3,2 4,3 4,3 -2,0 -12,-5 -12,-5 0,0 0,-1 0,-1 2,1 5,2 8,3z"/>
                <path d="M2392 404c3,2 5,4 4,4 -2,0 -12,-8 -12,-9 0,0 1,0 1,0 1,0 5,2 7,5z"/>
                <path d="M2608 801l1 -1 -1 -2 0 0c0,0 0,1 0,3zm3 0l0 0c0,-5 -1,-9 -2,-9 -1,1 -1,5 -1,5 0,1 1,2 2,3l-1 0 -1 1c0,5 1,7 2,7 0,-1 1,-4 1,-7z"/>
                <path d="M2202 383c1,3 -1,5 -4,4 -4,-2 -6,-7 -3,-8 1,0 1,0 1,0 3,0 5,2 6,4z"/>
                <circle transform="matrix(0.771128 1.30939 -1.30939 0.771128 2174.79 568.48)" r="4"/>
                <path d="M1615 737c-1,7 -3,19 -4,20 -2,-2 3,-41 5,-44 0,0 0,0 1,0 1,3 -2,21 -2,24z"/>
            </g>
            <g class="community-black icon">
                <path class="outer-circle" d="M2596 739l0 -1c-1,0 -2,0 -3,-1 0,0 0,1 0,1 1,1 2,1 3,1zm6 -2l0 0c0,0 0,0 0,0 0,-1 0,-1 0,-1l0 0c-1,1 -2,1 -3,2 0,0 0,0 1,1 0,-1 1,-1 2,-2zm-13 -1l0 0 0 -1c-2,-1 -3,-2 -4,-4 0,1 0,1 0,1 1,2 3,3 4,4zm16 -7l0 0c0,0 0,-1 0,-1l0 0c0,2 -1,3 -1,4 0,1 0,1 0,1 0,0 1,-2 1,-4zm-25 -2l0 0 0 -1c-2,-2 -3,-4 -5,-6 0,0 0,0 0,1 1,2 3,4 5,6zm26 -11l0 0c0,-1 0,-1 0,-1l0 0c0,2 0,5 0,7 0,0 0,0 0,1 0,-1 0,-4 0,-7zm-37 -3l0 0 1 -1c-2,-3 -4,-5 -6,-8 0,0 0,0 0,0 2,3 4,6 5,9zm35 -15l0 0c0,0 0,-1 0,-1l0 0c0,1 1,5 1,9 0,0 0,1 1,1 -1,-1 -1,-4 -2,-9zm-45 -4l0 0 0 0c-2,-4 -4,-7 -6,-11 0,0 0,1 0,1 2,3 4,7 6,10zm41 -18l0 0c0,0 0,0 0,-1l0 1c1,3 2,7 2,10 0,1 0,1 1,1 -1,-1 -2,-5 -3,-11zm-52 -4l0 0 0 0c-2,-4 -3,-8 -5,-12 0,0 0,0 0,0 2,4 3,8 5,12zm45 -20l0 0c0,0 0,0 0,-1l0 1c1,1 2,6 4,11 0,0 0,1 0,1 0,-2 -2,-6 -4,-12zm-55 -4l0 0 0 -1c0,-1 -2,-6 -4,-12 0,0 0,0 0,0 2,6 3,11 4,13zm47 -21l0 0c-2,-5 -3,-9 -4,-10 0,0 0,0 0,0 1,3 4,11 8,21 0,0 0,1 0,1 0,-2 -2,-6 -4,-12zm-58 -16l0 0c0,0 0,0 0,-1 0,0 -1,0 -1,0l0 1c1,4 3,7 4,11 0,0 0,1 0,1 0,-2 -2,-6 -3,-12zm49 -6l0 0 0 0c-2,-4 -3,-8 -5,-12l0 0 0 0 0 0 0 1 0 0c2,3 3,7 5,11zm-55 -17l0 0c0,0 0,-1 0,-1l0 1c1,3 1,7 2,11 1,0 1,0 1,0 -1,-3 -2,-6 -3,-11zm45 -5l0 0 -1 -1c-1,-3 -3,-7 -5,-10 0,0 0,1 0,1 2,3 4,6 6,10zm-49 -15l0 0c0,0 0,-1 0,-1l0 0c1,10 1,10 2,10 0,-1 -1,-5 -2,-9zm38 -5l0 0 0 0c-2,-3 -4,-6 -6,-8 0,0 1,0 1,0 1,3 3,6 5,8zm-40 -11l0 0c0,-1 0,-1 0,-1l0 0c0,4 0,7 0,7 1,1 1,1 1,1 0,-1 0,-4 -1,-7zm30 -4l0 0 -1 -1c-2,-2 -3,-4 -5,-6 0,0 1,1 1,1 1,2 3,4 5,6zm-30 -9l0 0c0,0 0,-1 0,-1l0 0c-1,3 -1,6 -1,6 0,0 1,0 1,1 0,-1 0,-3 0,-6zm20 -2l0 0 0 -1c-2,-2 -3,-3 -4,-4 0,0 0,1 0,1 1,1 3,2 4,4zm-18 -6l0 0c0,0 0,0 0,0 0,0 0,0 0,-1l-1 1c0,0 0,1 -1,3 0,0 1,0 1,1 0,-1 0,-2 1,-4zm10 -1l0 0 0 -1c-1,0 -3,-1 -4,-1 1,0 1,0 1,1 1,0 2,0 3,1zm-6 -2l0 0 0 -1c0,0 0,0 0,0 0,0 0,0 0,0 0,0 0,0 0,0 0,0 0,0 0,0 0,0 0,0 0,0 0,0 -1,0 -1,0 0,0 0,0 0,0 0,0 0,0 0,0 0,1 -1,1 -2,1 0,1 1,1 1,1 1,0 1,-1 2,-1 0,0 0,0 0,0 0,0 0,0 0,0 0,0 0,0 0,0 0,0 0,0 0,0 0,0 0,0 0,0 0,0 0,0 0,0 0,0 0,0 0,0 0,0 0,0 0,0z"/>
                <path class="outer-circle" d="M2597 728c0,0 0,0 0,0 0,0 0,-1 0,-1 -1,0 -3,0 -3,0 0,0 0,1 0,1 0,0 2,1 3,0zm5 -4l0 0c0,-1 0,-1 -1,-2l0 0c0,2 -1,3 -2,3 1,1 1,1 1,2 0,-1 1,-2 2,-3zm-12 3l0 0 0 -2c-1,0 -3,-1 -4,-3 0,1 0,1 0,2 1,1 3,2 4,3zm14 -14l0 0c0,0 0,-1 -1,-1l0 0c0,1 0,3 0,6 0,0 0,0 0,0 0,0 0,1 0,1 0,-2 1,-4 1,-6zm-23 6l0 0 0 -1c-1,-2 -3,-4 -5,-6 0,0 0,1 0,1 2,2 3,4 5,6zm22 -22l0 0c0,0 0,-1 0,-1l0 0c0,3 0,6 0,8 0,1 1,1 1,1 0,-1 0,-4 -1,-8zm-32 9l0 0 0 -2c-2,-2 -3,-5 -5,-8 0,0 0,0 0,1 2,3 3,6 5,9zm29 -30l0 0c-1,0 -1,0 -1,-1l0 1c1,3 2,7 2,10 0,0 0,1 1,1 -1,-2 -1,-6 -2,-11zm-40 11l0 0 0 -1c0,0 0,0 0,0 -1,-3 -3,-7 -5,-11 0,0 0,1 0,1 2,4 3,7 5,11zm33 -35l0 0c0,0 0,0 0,0l0 0c1,2 2,6 3,11 0,1 0,1 1,1 -1,-1 -2,-6 -4,-12zm-43 12l0 0 0 0c-2,-4 -3,-8 -5,-12 0,0 0,0 0,0 1,4 3,8 5,12zm35 -37l0 0c0,0 0,0 0,0 0,0 0,0 0,0 0,1 2,6 4,12 0,0 0,0 0,0 0,-1 -2,-6 -4,-12zm-48 0l0 0c-1,0 -1,0 -1,0 0,0 0,0 0,0l0 0c1,4 3,8 4,12 0,0 0,0 0,0 0,-3 -2,-7 -3,-12zm46 -5l0 0 0 0c-2,-5 -4,-8 -5,-13 0,1 0,1 0,1 1,4 3,7 5,12zm-53 -19l0 0c0,0 -1,0 -1,0l0 0c1,4 2,7 3,11 0,0 1,1 1,1 -1,-3 -2,-7 -3,-12zm43 -5l0 0 -1 0c0,-2 -1,-3 -2,-4 -1,-3 -2,-5 -3,-7 0,0 0,0 0,0 2,3 2,3 4,7 0,2 1,3 2,4zm-48 -16l0 0c0,0 0,-1 -1,-1l0 0c1,6 2,10 2,10 1,1 1,1 1,1 0,-2 -1,-5 -2,-10zm37 -5l0 0 0 0c-2,-4 -4,-6 -6,-9 0,0 1,0 1,0 1,3 3,6 5,9zm-40 -13l0 0c0,-1 0,-1 -1,-1l0 0c1,4 2,8 2,8 0,1 0,1 0,1 0,-2 0,-5 -1,-8zm29 -4l0 0 0 -1c-2,-2 -3,-4 -5,-7 0,1 0,1 0,1 2,3 4,5 5,7zm-29 -10l0 0c0,0 -1,-1 -1,-1l0 0c0,3 0,6 0,6 0,1 0,1 1,1 -1,-1 -1,-4 0,-6zm20 -2l0 0 -1 -1c-1,-2 -3,-3 -4,-5 0,1 0,1 0,1 2,2 3,3 5,5zm-19 -7l0 0c0,0 0,0 0,0 0,0 0,0 0,-1l-1 0c0,1 0,2 -1,4 1,0 1,1 1,1 0,-1 1,-2 1,-4zm11 -1l0 0 -1 -1c-1,-1 -2,-1 -4,-2 1,1 1,1 1,1 1,1 2,1 4,2zm-7 -2l0 0 0 -1c0,0 0,0 0,0 0,0 0,0 0,0 0,0 0,0 0,0 0,0 0,0 0,0 0,0 -1,0 -1,0 0,0 0,0 0,0 0,0 0,0 0,0 0,0 0,0 0,0 0,0 -1,0 -2,1 0,0 1,1 1,1 1,0 1,-1 2,-1 0,0 0,0 0,0 0,0 0,0 0,0 0,0 0,0 0,0 0,0 0,0 0,0 0,0 0,0 0,0 0,0 0,0 0,0 0,0 0,0 0,0 0,0 0,0 0,0z"/>
                <path class="outer-circle" d="M2598 718c0,0 0,0 0,0 0,-1 -1,-2 -1,-3l0 0c-1,1 -1,1 -2,2 0,0 0,1 0,2 0,0 2,0 3,-1zm-6 1l0 0 -1 -3c-1,0 -2,-1 -4,-2 1,1 1,2 1,3 1,1 2,1 4,2l0 0zm9 -9l0 0 0 -2 -1 0c0,2 0,3 -1,4 0,0 0,0 0,0 0,1 1,2 1,3 0,-1 1,-2 1,-5zm-18 3l0 0 0 -2c0,-1 -2,-3 -5,-6 0,1 0,2 0,3 3,2 4,4 5,5zm18 -17l0 0c0,-1 0,-1 0,-2l0 0c0,3 0,5 0,7 0,0 0,0 0,0 0,1 1,2 1,3 0,-2 0,-4 -1,-8zm-28 5l0 0 0 -3c-1,-2 -3,-5 -5,-8 0,1 0,1 0,2 2,3 3,6 5,9zm26 -24l0 0c0,-1 -1,-2 -1,-2l0 0c1,3 1,7 2,10 0,0 0,1 0,2 0,-2 0,-5 -1,-10l0 0zm-37 5l0 0 1 -1c-2,-4 -4,-7 -5,-11 -1,0 -1,1 -1,1 2,4 4,8 5,11zm31 -29l0 0c0,0 0,-1 -1,-1l1 1c1,3 2,7 2,10 1,1 1,1 1,2 -1,-3 -2,-7 -3,-12zm-41 6l0 0 0 0c-1,-5 -3,-8 -4,-13 -1,1 -1,1 -1,1 1,4 3,8 5,12zm33 -31l0 0c-2,-4 -3,-6 -3,-8 0,0 0,1 0,1 0,2 3,9 6,18 0,0 1,1 1,1 -1,-2 -2,-6 -4,-12zm-45 -5l0 0c-1,-1 -1,-1 -1,-1 0,0 0,0 -1,0l0 0c2,4 3,8 4,12 0,0 0,0 0,0 0,0 0,0 0,0 0,0 0,0 0,0 0,0 0,0 0,0 0,0 0,0 0,0 0,0 0,0 0,0 0,0 0,0 0,0 0,0 0,0 0,0l1 0c0,0 0,0 0,0 0,0 0,0 0,0 0,0 0,0 0,0 0,0 0,0 0,0 0,0 0,0 0,0 0,0 0,0 0,0 0,0 0,0 0,0 0,0 0,0 0,0 -1,-2 -2,-6 -3,-11zm37 -14l0 0 0 -1c-2,-4 -4,-8 -6,-11 0,0 0,0 0,1 2,3 4,7 6,11zm-44 -10l0 0c0,-1 -1,-1 -1,-1l0 0c0,1 0,1 0,1l0 0c1,4 2,7 3,10 0,1 1,1 1,1 -1,-3 -1,-6 -2,-10 0,0 -1,-1 -1,-1zm33 -12l0 0 0 -1c-2,-4 -4,-7 -6,-10 1,1 1,1 1,2 2,3 3,6 5,9zm-37 -8l0 0c0,-1 -1,-1 -1,-2l0 0c1,6 2,10 2,10 0,1 1,1 1,1 0,-1 -1,-5 -2,-9zm27 -10l0 0 -1 -1c-2,-3 -3,-5 -5,-8 0,1 0,2 1,2 1,2 3,5 5,7zm-28 -6l0 0c0,-1 -1,-1 -2,-2l0 0c0,4 1,7 1,7 0,1 1,2 1,2 0,-1 0,-4 0,-7zm18 -7l0 0 -1 -2c-2,-1 -3,-3 -4,-4 0,1 0,1 1,2 1,1 2,3 4,4zm-18 -3l0 0c0,0 0,-1 0,-1 0,0 -1,-1 -1,-2l0 0c-1,3 -1,5 -1,5 0,1 1,1 2,2 0,-1 0,-3 0,-4zm10 -4l0 0 -1 -2c-2,-1 -2,-1 -4,-2 1,1 1,2 2,3 1,0 2,0 3,1zm-6 -1l0 0c0,0 0,0 0,0 0,-1 -1,-2 -1,-3l-1 1c0,0 -1,0 -1,1 0,1 0,2 1,2 0,0 1,-1 2,-1z"/>
                <path class="outer-circle" d="M2586 633c15,45 17,79 2,72 -13,-6 -39,-51 -51,-110 -8,-41 1,-40 7,-36 10,7 28,36 42,74zm0 0l0 0c-14,-40 -39,-83 -51,-79 -20,14 31,154 57,156 12,1 9,-33 -6,-77z"/>
                <path class="icon-back" d="M2585 633l0 0c-13,-36 -35,-74 -45,-71 -17,13 28,137 50,139 11,1 9,-29 -5,-68z"/>
                <path class="people" d="M2583 658c-1,0 -2,0 -2,0 -4,1 -8,1 -13,2 -4,-13 -6,-29 -2,-30 4,0 7,4 12,14 0,-1 -1,-6 1,-7 2,0 6,8 10,20 -1,0 -4,1 -6,1zm-7 -34c2,6 3,10 1,9 -2,-1 -9,-18 -7,-19 2,0 5,6 6,10zm-12 -9c3,7 3,12 0,10 -4,-2 -12,-20 -8,-22 0,0 0,0 0,0 3,0 6,7 8,12zm14 30c1,1 2,4 3,7 -1,-4 -2,-6 -3,-7l0 0z"/>
            </g>
            <g class="community-black icon">
                <path class="outer-circle" d="M1717 666l0 -1c-3,0 -5,-1 -7,-1 0,0 0,0 0,0 1,1 4,2 7,2zm16 0l0 0c0,0 0,0 0,0 1,0 1,0 1,-1l-1 1c-3,0 -5,0 -8,0 0,0 0,1 0,1 1,0 4,0 8,-1zm-30 -5l0 0 1 -1c-2,-1 -4,-3 -6,-4 0,0 0,0 0,1 2,1 3,3 5,4zm48 0l0 0c0,0 0,0 1,0 0,0 0,-1 0,-1l-1 0c-3,2 -6,3 -9,3 0,1 0,1 0,1 1,0 5,-1 9,-3zm-58 -10l0 0 1 -1c-2,-2 -3,-4 -4,-7 0,0 0,1 0,1 1,2 2,5 3,7zm77 0l0 0c0,0 0,0 0,0 0,-1 0,-1 0,-1l0 0c-3,2 -6,4 -9,6 0,0 0,0 0,0 1,0 5,-2 9,-5zm-82 -15l0 0 0 -1c-1,-3 -1,-6 -1,-9 0,0 0,1 -1,1 1,3 1,6 2,9zm101 0l0 0c0,-1 0,-1 0,-1 0,0 0,0 0,0l-1 0c-3,3 -5,5 -9,8 1,0 1,0 1,0 1,0 4,-3 9,-7zm-103 -19l0 0 1 -1c0,-3 1,-6 1,-10 0,0 0,0 0,0 -1,4 -1,7 -2,11zm120 -1l0 0c0,0 0,0 0,0 0,0 -1,0 -1,0l0 0c-3,3 -5,6 -8,10 0,0 0,0 1,0 1,-1 4,-5 8,-10zm-115 -21l0 0c0,0 0,0 0,0 1,-4 2,-8 3,-12 0,0 0,0 0,0 -2,4 -3,8 -4,12 0,0 1,0 1,0zm129 -1l0 0 0 0 0 0c-3,5 -5,8 -7,11 0,0 0,0 0,0 1,-1 4,-5 7,-11l0 0zm-121 -22l0 0 0 0c2,-5 3,-8 6,-12 -1,0 -1,0 -1,0 -2,4 -4,8 -5,12zm132 -1l0 0c2,-5 3,-8 3,-10 0,0 0,0 -1,0 -2,7 -4,14 -8,21 1,0 1,0 1,0 1,-1 3,-5 5,-11zm-113 -33l0 0c0,0 0,0 0,0 0,0 0,0 0,-1l0 1c-3,3 -5,7 -7,10 0,1 0,1 0,1 1,-2 3,-6 7,-11zm121 1l0 0 0 0 0 0c0,0 0,0 0,0zm-3 11l0 0 1 0c1,-4 2,-7 2,-11l0 0 0 0 0 0 0 0 0 0c-1,4 -2,7 -3,11zm-102 -32l0 0c0,0 0,0 0,0 0,0 0,-1 0,-1l0 1c-3,3 -5,6 -8,9 0,0 0,0 0,0 1,-1 4,-5 8,-9zm106 11l0 0 1 -1c0,-3 0,-6 0,-10 0,1 0,1 0,1 0,3 -1,6 -1,10zm-89 -28l0 0c0,0 0,-1 0,-1l0 0c-1,1 -5,4 -8,8 0,0 0,1 0,1 2,-3 5,-6 8,-8zm89 9l0 0 1 -1c0,-3 0,-5 -1,-8 0,0 0,0 0,1 0,2 0,5 0,8zm-72 -23l0 0c0,0 0,0 1,-1l-1 1c-4,2 -7,5 -8,6 0,0 0,0 0,0 1,-1 4,-3 8,-6zm70 7l0 0 1 0c-1,-3 -2,-5 -3,-7 0,0 0,1 0,1 1,2 1,4 2,6zm-53 -16l0 0c0,-1 0,-1 0,-1l0 0c-4,2 -7,4 -8,4 0,0 0,1 0,1 1,-1 4,-3 8,-4zm48 4l0 0 0 0c-1,-2 -2,-3 -4,-5 0,1 0,1 0,1 1,1 2,3 4,4zm-33 -10l0 0c0,0 0,0 0,0 0,0 0,0 1,-1l-1 1c-4,0 -7,2 -7,2 0,0 0,0 0,0 1,0 3,-1 7,-2zm24 3l0 0 1 -1c-2,-1 -3,-2 -5,-2 0,0 -1,0 -1,0 2,1 4,2 5,3zm-11 -4l0 0 1 0c0,0 0,0 0,0 0,0 0,0 0,0 0,0 0,0 0,0 0,0 0,0 0,0 0,0 0,0 0,0 0,0 0,0 0,0 0,0 0,0 0,0 0,0 0,0 0,0 -3,-1 -4,-1 -6,-1 -1,1 -1,1 -1,1 2,0 4,0 6,0 0,0 0,0 0,0 0,0 0,0 0,0 0,0 0,0 0,0 0,0 0,0 0,0 0,0 0,0 0,0 0,0 0,0 0,0 0,0 0,0 0,0 0,0 0,0 0,0z"/>
                <path class="outer-circle" d="M1725 657c0,0 0,0 0,0 0,-1 0,-1 1,-1 -3,-1 -6,-1 -8,-2 0,1 0,1 0,2 0,0 3,1 7,1zm17 -2l0 0c0,0 0,0 0,0 0,-1 0,-1 0,-2l0 1c-3,0 -5,1 -8,1 0,1 0,1 -1,2 2,-1 5,-1 9,-2zm-31 -2l0 0 0 -1c-2,-1 -4,-2 -6,-4 0,0 0,1 0,1 2,2 3,3 6,4zm49 -6l0 0c1,0 1,0 1,0 0,-1 0,-1 0,-1l-1 0c-3,1 -5,3 -9,4 0,1 0,1 0,1 2,0 5,-2 9,-4zm-60 -3l0 0 0 -1c-1,-2 -2,-4 -3,-7 0,0 -1,1 -1,1 1,3 2,5 4,7zm79 -11l0 0c0,0 0,0 0,0 0,0 0,0 0,-1l0 1c-3,2 -6,4 -9,7 0,0 0,0 0,1 1,-1 5,-4 9,-8zm-85 -4l0 0 0 -1c0,-3 -1,-5 -1,-9 0,1 0,1 -1,1 1,4 1,6 2,9zm103 -14l0 0c0,0 0,0 0,0 0,0 0,0 -1,-1l0 1c-2,3 -5,6 -8,9 0,0 0,0 0,1 2,-1 5,-5 9,-10zm-105 -5l0 0 1 0c0,-4 1,-7 2,-11 -1,0 -1,0 -1,0 -1,4 -1,8 -2,11l0 0zm120 -16l0 0c0,0 0,-1 0,-1 0,0 -1,0 -1,0l0 0c-2,4 -4,7 -7,11 0,0 1,0 1,1 1,-2 4,-6 7,-11zm-115 -6l0 0 0 0c2,-4 3,-8 4,-12 0,0 0,0 0,0 -2,5 -3,8 -4,12zm126 -18l0 0c0,0 0,0 0,0 0,0 0,0 -1,0 -1,4 -3,7 -5,12 1,0 1,0 1,0 1,-2 3,-6 5,-12zm-111 -16l0 0c0,0 1,-1 1,-1 -1,0 -1,0 -1,0l0 1c-2,3 -4,7 -6,11 0,0 0,0 0,0 2,-3 4,-7 6,-11zm112 11l0 0 1 0c2,-6 3,-10 3,-11 0,0 0,0 0,0 -1,1 -2,5 -4,11zm-97 -33l0 0c0,0 0,0 0,0 0,0 0,0 0,-1l0 1c-3,3 -5,6 -8,10 0,0 0,0 1,0 0,-1 3,-5 7,-10zm103 11l0 0 1 -1c0,-1 0,-2 0,-4l0 0c1,-1 1,-3 1,-6 0,0 0,0 -1,0 0,2 0,5 -1,7 0,1 0,2 0,4zm-86 -30l0 0 0 -1 0 0c-3,3 -5,6 -9,10 0,0 0,0 0,0 3,-3 6,-6 9,-9zm88 9l0 0 1 0c0,-3 0,-6 0,-9 -1,0 -1,0 -1,1 0,2 0,5 0,8zm-71 -24l0 0c0,0 0,0 0,-1l0 0c-5,4 -8,7 -9,7 0,1 0,1 0,1 1,-1 5,-4 9,-7zm70 7l0 0 1 0c-1,-3 -2,-5 -2,-7 -1,0 -1,0 -1,0 0,3 1,5 2,7zm-53 -18l0 0c0,0 0,0 0,-1l0 1c-5,2 -8,4 -8,4 0,0 0,1 -1,1 1,-1 5,-3 9,-5zm48 5l0 0 1 0c-1,-2 -2,-4 -4,-5 0,0 0,0 -1,1 2,1 3,3 4,4zm-33 -11l0 0c0,0 0,0 0,0 1,0 1,0 1,-1l0 0c-4,1 -8,3 -8,3 0,0 0,0 0,1 1,-1 4,-2 7,-3zm25 3l0 0 1 -1c-2,-1 -3,-2 -5,-3 -1,1 -1,1 -1,1 2,1 3,2 5,3zm-11 -4l0 0 1 -1c0,0 0,0 0,0 0,0 0,0 0,0 0,0 0,0 0,0 0,0 0,0 0,0 0,0 -1,0 -1,0 0,0 0,0 0,0 0,0 0,0 0,0 0,0 0,0 0,0 -2,0 -4,0 -6,0 0,0 0,1 0,1 2,0 4,0 6,0 0,0 0,0 0,0 0,0 0,0 0,0 0,0 0,0 0,0 0,0 0,0 0,0 0,0 0,0 0,0 0,0 0,0 0,0 0,0 0,0 0,0 0,0 0,0 0,0z"/>
                <path class="outer-circle" d="M1734 648c0,0 0,0 0,0 1,-1 1,-2 1,-3l-1 0c-2,1 -5,1 -7,1 0,0 -1,1 -1,2 1,0 4,0 8,0zm-15 -1l0 0 1 -3c-3,-1 -5,-2 -7,-3 0,1 -1,2 -1,3 2,1 4,2 7,3zm33 -4l0 0c0,0 0,0 0,0 0,-1 0,-2 0,-3l0 1c-3,1 -6,2 -9,3 0,0 0,1 0,2 1,0 5,-1 9,-3zm-46 -4l0 0 2 -2c-2,-2 -3,-4 -4,-6 -1,0 -1,1 -2,2 1,2 3,4 4,6zm65 -7l0 0c0,-1 0,-1 0,-1 0,0 0,-1 0,-2l-1 0c-3,3 -5,5 -8,7 0,0 0,1 0,2 1,-1 4,-3 9,-6zm-72 -7l0 0 2 -2c-1,-2 -1,-5 -2,-8 0,0 -1,1 -1,1 0,4 0,6 1,9zm90 -10l0 0c0,0 0,-1 0,-1 0,0 0,-1 -1,-1l0 0c-3,3 -5,6 -8,9 0,0 0,1 0,1 2,-1 5,-4 9,-8zm-91 -8l0 0 1 -2c0,-3 1,-7 2,-10 -1,0 -1,0 -2,1 -1,4 -1,7 -1,11zm107 -14l0 0c0,0 0,0 0,0 0,0 -1,-1 -1,-1l-1 1c-2,4 -4,6 -7,10 1,0 1,1 2,1 0,-1 3,-5 7,-11zm-103 -9l0 0 1 0c2,-4 3,-8 4,-12 0,0 0,0 -1,1 -1,4 -3,7 -4,11zm114 -14l0 0c1,-2 2,-4 3,-7 -1,0 -1,0 -2,0l0 0c-2,6 -4,12 -7,18 0,0 1,0 1,0 1,-1 3,-5 5,-11zm-97 -20l0 0c0,0 0,0 0,0 0,-1 0,-1 -1,-1l0 1c-2,3 -4,6 -6,10 0,0 0,0 0,0 0,0 0,0 0,0 0,0 0,0 0,0 0,0 0,0 0,0 0,0 0,0 0,0 0,1 0,1 0,1 0,0 0,0 0,0 0,0 0,0 0,0l1 0c0,0 0,0 0,0 0,0 0,0 0,0 0,0 0,0 0,0 0,0 0,0 0,0 0,0 0,-1 0,-1 0,0 0,0 0,0 0,0 0,0 0,0 0,0 0,0 0,0 1,-1 3,-5 6,-10zm101 2l0 0 2 -1c1,-3 2,-7 2,-11 0,1 -1,1 -1,1 -1,4 -2,7 -3,11zm-86 -23l0 0c0,0 0,0 0,0 0,0 0,-1 0,-1l0 0c0,1 -1,1 -1,1 0,0 0,0 0,0 -3,3 -5,6 -7,9 0,0 0,1 0,1l0 0c3,-3 5,-6 7,-9 1,0 1,0 1,-1zm90 2l0 0 2 -1c0,-3 0,-6 0,-10 -1,1 -2,1 -2,2 0,3 0,6 0,9l0 0zm-73 -19l0 0c0,0 0,-1 0,-2l0 1c-2,1 -5,4 -8,8 0,0 0,0 0,1 2,-3 5,-5 8,-8zm72 1l0 0 2 -1c-1,-3 -1,-5 -2,-8 -1,1 -1,2 -2,2 1,2 1,5 2,7l0 0zm-55 -14l0 0c0,0 1,-1 1,-2l0 0c-5,3 -9,6 -9,6 0,0 0,1 0,2 1,-1 4,-3 8,-6zm50 1l0 0 2 -2c-1,-2 -2,-3 -4,-5 0,1 -1,2 -1,2 1,2 2,3 3,5zm-34 -9l0 0c1,0 1,-1 1,-2l0 0c-4,2 -8,3 -8,3 0,1 0,2 -1,2 2,0 4,-2 8,-3zm26 1l0 0 2 -2c-2,-1 -4,-2 -6,-3 0,1 -1,2 -1,2 2,1 3,2 5,3zm-12 -4l0 0c0,0 1,0 1,0 0,0 1,-1 1,-2l0 0c-3,0 -4,1 -7,1 0,1 -1,1 -1,2 1,0 3,-1 6,-1z"/>
                <path class="outer-circle" d="M1807 571c-26,62 -86,83 -99,48 -8,-20 2,-59 36,-94 38,-39 72,-36 72,5 0,20 -7,36 -9,41zm2 0l0 0c10,-23 20,-76 -15,-77 -54,3 -116,108 -81,139 24,22 75,-11 96,-62z"/>
                <path class="icon-back" d="M1803 571l0 0c10,-24 16,-68 -14,-69 -48,3 -102,96 -72,123 22,19 67,-10 86,-54z"/>
                <path class="people" d="M1780 562c-4,7 -12,10 -14,5 -2,-6 5,-16 12,-16 4,1 4,7 2,11zm-34 29c-4,-1 -8,-1 -12,-1 -4,-1 -9,-1 -13,-2 4,-11 15,-26 27,-26 6,1 9,6 8,15 0,0 5,-5 12,-5 8,1 10,9 6,21 -8,-1 -15,-1 -23,-2l0 0 0 0 -5 0zm10 -13c-1,2 -1,3 -2,6 1,-3 1,-5 2,-6 0,0 0,0 0,0zm-5 13c-1,0 -3,0 -5,0 2,0 4,0 5,0zm11 -41c-5,8 -14,12 -15,6 -2,-7 7,-19 14,-19 5,1 3,8 1,13z"/>
            </g>
            <g class="community-white icon">
                <path class="outer-circle" d="M2149 930l0 -1c-6,-1 -10,-1 -15,-3 0,1 -1,1 -1,1 6,2 10,3 16,3zm30 -1l0 0c1,0 1,0 1,0 0,-1 0,-1 0,-2l-1 0c-5,2 -10,2 -15,2 0,1 0,1 0,2 2,0 8,-1 15,-2zm-60 -7l0 0 0 -1c-5,-3 -9,-5 -13,-8 -1,0 -1,0 -1,1 4,3 9,5 14,8zm90 -6l0 0 0 -1 0 0c-5,3 -9,5 -14,7 0,1 0,1 0,2 4,-2 8,-4 14,-8zm-116 -13l0 0 1 -1c-1,0 -1,0 -1,0 0,0 -1,0 -1,1 0,0 0,0 1,0zm-3 -2l0 0 1 -1c-3,-3 -5,-6 -8,-10 0,0 0,1 -1,1 3,4 5,6 8,10zm143 -6l0 0c1,0 1,0 1,0 -1,-1 -1,-1 -1,-1l-1 0c-3,4 -6,8 -10,12 0,0 0,0 0,1 2,-2 6,-6 11,-12zm15 -23l0 0c0,0 0,0 0,0 0,0 -1,-1 -1,-1l0 1c-2,3 -3,5 -5,8 0,1 1,1 1,1 1,-1 3,-4 5,-9zm-174 5l0 0 1 -1c-2,-5 -4,-10 -6,-15 0,0 -1,0 -1,0 2,6 3,11 6,16zm176 -11l0 0c0,0 0,0 0,0 0,0 -1,0 -1,-1l0 1c0,1 -1,2 -1,3 0,0 1,0 1,0 0,0 1,-1 1,-3zm-186 -21l0 0 2 0c-1,-6 -1,-11 -1,-17 -1,0 -1,0 -2,0 0,6 1,11 1,17zm193 -12l0 0c0,0 0,0 0,0 -1,0 -1,0 -1,-1l0 1c-1,6 -1,11 -2,16 0,1 1,1 1,1 1,-5 2,-10 2,-17zm-190 -24l0 0c0,0 0,0 0,0 0,0 -1,0 -1,0l0 0c0,1 -1,1 -1,2 1,0 1,0 2,0 0,0 0,-1 0,-2zm4 -14l0 0 -1 0 0 0 0 0c-3,6 -4,11 -4,14 0,0 1,0 1,0 1,-2 2,-7 4,-14zm184 21l0 0 1 -1c-1,-8 -3,-14 -4,-16 0,0 -1,0 -1,0 1,3 3,9 4,17zm-169 -49l0 0c1,0 1,0 1,0 -1,-1 -1,-1 -1,-1l-1 0c-3,4 -6,9 -8,13 0,1 0,1 1,1 1,-2 4,-7 8,-13zm159 17l0 0 1 -1c-2,-5 -5,-9 -8,-14 -1,1 -1,1 -1,1 3,5 5,9 8,14zm-135 -39l0 0c0,0 0,0 0,0 0,0 0,-1 0,-1l-1 0c-4,3 -8,6 -12,10 0,0 1,1 1,1 1,-1 6,-5 12,-10zm116 13l0 0 1 -1c-4,-4 -8,-7 -13,-11 0,1 0,1 0,2 4,3 8,6 12,10zm-87 -25l0 0c0,0 0,0 0,0 0,0 0,-1 0,-1l-1 0c-5,1 -9,2 -14,5 0,0 0,0 0,1 2,-1 7,-3 15,-5zm61 7l0 0 1 -2c-5,-2 -10,-4 -15,-5 0,0 0,1 -1,1 6,1 10,3 15,6zm-30 -9l0 0 0 0c-5,-1 -10,-1 -15,-1l0 1c7,-1 13,0 15,0z"/>
                <path class="outer-circle" d="M2182 908c1,-1 2,-1 3,-1 0,-1 0,-1 0,-2 -20,7 -49,10 -76,-16 -1,1 -1,1 -1,1 30,28 62,22 74,18zm-76 -20l0 0 1 -1c-4,-4 -8,-8 -11,-13 0,0 -1,0 -1,0 3,6 6,10 11,14zm-12 -16l0 0 1 0c-6,-11 -9,-21 -10,-34 -1,0 -1,0 -2,0l0 1c2,12 5,23 11,33zm143 -36l0 0c1,-9 0,-16 0,-19 -1,0 -1,0 -2,0l0 0c6,39 -15,75 -50,88 0,1 0,1 0,2 30,-12 50,-39 52,-71zm-150 -25l0 0c0,0 0,-1 0,-1 -1,0 -1,0 -1,0l-1 1c-2,9 -2,17 -2,26 0,-1 0,-1 0,-2l1 1c0,-4 0,-13 3,-25zm148 6l0 0 2 0c-4,-17 -19,-70 -84,-67 -47,7 -62,40 -67,59 0,0 1,1 1,1 17,-67 102,-81 138,-22 7,11 9,22 10,29z"/>
                <path class="icon-back" d="M2232 839l0 0c4,-35 -18,-87 -79,-84 -74,12 -86,103 -33,139 45,31 106,1 112,-55z"/>
                <path class="people" d="M2208 823c-1,8 -11,11 -16,4 -4,-6 -1,-15 7,-15 7,0 10,6 9,11l0 0zm-74 30c-11,0 -21,-1 -32,-1 1,-12 9,-19 20,-20 7,1 12,4 15,9 0,0 0,1 0,0 5,-9 13,-14 24,-14 14,1 24,12 24,27 0,-5 0,-7 -2,-12 5,-5 9,-7 16,-8 11,1 18,9 18,21 -10,0 -21,-1 -32,-1 -2,0 -4,0 -6,0 -15,0 -30,-1 -45,-1zm-3 -32c-1,8 -11,11 -16,4 -4,-6 -1,-15 7,-15 7,1 10,7 9,11zm42 -10c-1,11 -15,15 -21,6 -6,-7 -2,-20 9,-20 9,1 13,9 12,14z"/>
            </g>
            <g class="star icon">
                <path class="outer-circle" d="M2446 803c-1,12 -7,31 -27,32 -30,-2 -37,-46 -16,-64 19,-16 45,3 43,32zm3 1l0 0c2,-22 -11,-44 -33,-43 -32,4 -38,53 -15,72 20,17 46,1 48,-29z"/>
                <ellipse class="icon-back" transform="matrix(0.0211052 1.51944 -1.51944 0.0211052 2418.82 800.632)" rx="18" ry="14"/>
                <path class="dots" d="M2419 818c1,0 1,0 1,1 0,0 0,1 -1,1 0,0 -1,-1 -1,-1 0,-1 1,-1 1,-1zm-2 -25c1,0 2,1 2,2 0,1 -1,2 -2,2 -1,0 -2,-1 -2,-2 0,-1 1,-2 2,-2zm5 0c1,0 2,1 2,2 0,1 -1,2 -2,2 -1,0 -2,-1 -2,-2 0,-1 1,-2 2,-2zm-7 6c1,0 2,1 2,2 0,1 -1,2 -2,2 -1,0 -2,-1 -2,-2 0,-1 1,-2 2,-2zm2 5c2,0 3,1 3,2 0,1 -1,2 -3,2 -1,0 -2,-1 -2,-2 0,-1 1,-2 2,-2zm5 0c2,0 3,1 3,2 0,1 -1,2 -3,2 -1,0 -2,-1 -2,-2 0,-1 1,-2 2,-2zm3 -5c1,0 2,1 2,2 0,1 -1,2 -2,2 -2,0 -3,-1 -3,-2 0,-1 1,-2 3,-2zm-5 -10c0,0 1,0 1,1 0,1 -1,1 -1,1 -1,0 -2,0 -2,-1 0,-1 1,-1 2,-1zm-8 5c1,0 1,1 1,1 0,1 0,2 -1,2 -1,0 -1,-1 -1,-2 0,0 0,-1 1,-1zm0 11c1,0 1,0 1,1 0,1 0,1 -1,1 -1,0 -1,0 -1,-1 0,-1 0,-1 1,-1zm7 5c1,0 2,1 2,2 0,0 -1,1 -2,1 0,0 -1,-1 -1,-1 0,-1 1,-2 1,-2zm9 -5c0,0 1,0 1,1 0,1 -1,1 -1,1 -1,0 -2,0 -2,-1 0,-1 1,-1 2,-1zm-1 -11c1,0 1,0 1,1 0,1 0,1 -1,1 -1,0 -1,0 -1,-1 0,-1 0,-1 1,-1zm4 5c1,0 1,1 1,1 0,1 0,1 -1,1 -1,0 -1,0 -1,-1 0,0 0,-1 1,-1zm-6 -12c0,0 1,1 1,1 0,1 -1,1 -1,1 -1,0 -2,0 -2,-1 0,0 1,-1 2,-1zm-11 0c1,0 1,1 1,1 0,1 0,2 -1,2 -1,0 -1,-1 -1,-2 0,0 0,-1 1,-1zm-6 12c1,0 1,0 1,1 0,1 0,1 -1,1 -1,0 -1,0 -1,-1 0,-1 0,-1 1,-1zm6 12c1,0 1,1 1,1 0,1 0,2 -1,2 -1,0 -1,-1 -1,-2 0,0 0,-1 1,-1zm12 1c0,0 1,0 1,1 0,1 -1,1 -1,1 -1,0 -2,0 -2,-1 0,-1 1,-1 2,-1zm1 4c1,0 1,1 1,1 0,1 0,1 -1,1 0,0 -1,0 -1,-1 0,0 1,-1 1,-1zm4 -8c1,0 1,0 1,1 0,0 0,1 -1,1 0,0 0,-1 0,-1 0,-1 0,-1 0,-1zm4 -9c1,0 1,1 1,1 0,1 0,1 -1,1 -1,0 -1,0 -1,-1 0,0 0,-1 1,-1zm-3 -8c0,0 1,0 1,1 0,0 -1,1 -1,1 -1,0 -1,-1 -1,-1 0,-1 0,-1 1,-1zm-5 -8c1,0 1,0 1,1 0,0 0,1 -1,1 0,0 -1,-1 -1,-1 0,-1 1,-1 1,-1zm-8 -1c1,0 1,0 1,1 0,0 0,1 -1,1 0,0 -1,-1 -1,-1 0,-1 1,-1 1,-1zm-7 1c0,0 1,1 1,1 0,1 -1,1 -1,1 -1,0 -1,0 -1,-1 0,0 0,-1 1,-1zm-5 8c1,0 1,0 1,1 0,0 0,1 -1,1 0,0 -1,-1 -1,-1 0,-1 1,-1 1,-1zm-3 9c1,0 1,1 1,1 0,1 0,1 -1,1 0,0 -1,0 -1,-1 0,0 1,-1 1,-1zm3 9c1,0 1,0 1,1 0,0 0,1 -1,1 0,0 -1,-1 -1,-1 0,-1 1,-1 1,-1zm5 8c0,0 1,0 1,1 0,0 -1,1 -1,1 -1,0 -1,-1 -1,-1 0,-1 0,-1 1,-1z"/>
            </g>
            <g class="python icon">
                <path class="icon-back" d="M2020 649c6,-28 -6,-53 -26,-58 -20,-6 -45,3 -60,32 -16,29 2,61 29,66 26,6 52,-12 57,-40z"/>
                <path class="logo-top" d="M1987 639c6,-3 9,-25 6,-32 -3,-9 -24,-10 -31,-5 -1,3 -1,9 -2,13l21 3 -1 2 -20 -3c0,0 -9,-1 -9,-1 -16,-2 -19,38 1,41 0,0 2,-9 4,-13 5,-13 21,-2 31,-5zm-19 -26c-2,0 -4,-3 -4,-5 1,-3 3,-5 5,-5 2,0 4,3 4,6 0,2 -3,4 -5,4z"/>
                <path class="logo-bottom" d="M1997 623c0,0 -2,9 -4,13 -5,13 -23,1 -33,5 -6,2 -9,24 -7,32 4,9 26,10 34,4 1,-3 1,-8 2,-13l-22 -2 0 -3 22 3c0,0 10,1 10,1 16,2 21,-37 -2,-40zm-17 42c2,1 4,3 4,6 -1,3 -3,5 -5,4 -3,0 -5,-2 -4,-5 0,-3 2,-5 5,-5z"/>
                <path class="outer-circle" d="M1969 718c-1,0 -2,0 -3,0 0,1 0,1 0,1 1,1 2,1 3,1l0 -2zm-37 -11l0 0c0,0 -1,1 -1,1 4,2 7,4 11,6 0,0 0,-1 0,-1 -4,-2 -7,-4 -10,-6zm73 2l0 0c-8,4 -15,7 -24,8 0,1 0,1 0,2 9,-2 17,-5 25,-9l-1 -1zm-81 -8l0 0c0,0 -1,0 -1,0 2,2 4,4 6,6 0,-1 1,-1 1,-2 -2,-1 -4,-2 -6,-4zm-2 -2l0 0c0,0 -1,0 -1,1 1,0 1,1 2,1 0,0 1,0 1,-1 -1,0 -1,-1 -2,-1zm96 1l0 0c-3,3 -6,5 -10,7 0,1 0,1 0,2 4,-3 8,-5 11,-8l-1 -1zm-104 -12l0 0c-1,0 -1,0 -1,1 2,3 4,6 6,9 1,-1 1,-1 1,-1 -2,-3 -4,-6 -6,-9zm-7 -13l0 0c0,0 0,0 -1,0 1,1 1,2 1,2 0,0 1,0 1,0 0,-1 0,-2 -1,-2l0 0zm130 3l0 0c0,0 0,1 -1,2 0,0 1,0 1,1 0,-1 1,-2 1,-3l-1 0zm-133 -41l0 0c0,0 0,0 -1,0 0,5 -1,8 -1,13 1,0 1,0 1,0 0,-5 1,-8 1,-13zm147 4l0 0c-1,-1 -1,-1 -2,-1 0,1 0,1 0,1 -1,9 -2,16 -6,25 1,0 1,0 1,0 4,-8 6,-16 7,-25 0,0 0,0 0,0zm0 -9l0 0c-1,0 -1,0 -1,0 0,2 0,4 0,6 0,0 0,0 1,0 0,-3 0,-6 0,-6zm-143 -11l0 0c-2,5 -3,9 -4,13 0,0 0,1 0,1 0,0 1,0 1,0 0,0 0,0 0,0 1,-5 2,-9 4,-14l-1 0zm142 4l0 0c0,0 0,0 -1,0 0,3 1,5 1,7 0,0 0,0 1,-1 0,-2 0,-4 -1,-6l0 0zm-137 -15l0 0c-2,3 -3,5 -4,9 0,0 0,0 1,0 1,-3 2,-6 4,-9l-1 0zm8 -14l0 0c0,1 -1,2 -1,2 0,1 0,1 1,1 0,-1 1,-1 1,-2l-1 -1zm122 3l0 0c0,0 -1,1 -1,1 0,1 1,1 1,2 0,0 1,0 1,-1 0,0 -1,-1 -1,-2zm-93 -28l0 0c-4,3 -7,4 -10,7 0,0 0,1 0,1 4,-3 7,-4 11,-7l-1 -1zm71 2l0 0c0,0 0,1 -1,1 4,3 10,7 16,16 0,0 1,-1 1,-1 -6,-8 -12,-13 -16,-16zm-11 -6l0 0c0,0 -1,0 -1,1 4,1 6,3 10,5 0,-1 0,-1 0,-1 -3,-2 -6,-4 -9,-5zm-35 -4l0 0c-8,1 -15,3 -23,7 0,1 1,1 1,1 7,-3 14,-6 22,-7l0 -1zm13 -1l0 0c-1,0 -1,0 -2,0 0,0 0,1 0,1 1,0 1,0 2,0 0,0 0,-1 0,-1z"/>
                <path class="outer-circle" d="M1932 687c0,0 -1,1 -1,1 2,2 4,4 6,5 0,0 1,0 1,0 -2,-2 -4,-4 -6,-6zm105 -48l0 0c-1,0 -1,1 -2,1 -5,51 -58,80 -97,53 0,0 -1,0 -1,0 39,29 96,-2 100,-54zm-118 -15l0 0c-4,14 -9,39 10,62 1,0 1,0 1,-1 -19,-22 -14,-47 -9,-60l-2 -1zm67 -49l0 0c-21,0 -50,12 -66,47 1,0 1,0 1,0 24,-54 90,-62 110,-12 4,9 5,19 4,30 1,-1 1,-1 2,-1 2,-35 -20,-62 -51,-64l0 0z"/>
                <path class="outer-circle" d="M2028 619c-2,1 -5,3 -6,4 4,21 -2,43 -17,55 -17,14 -42,17 -63,1 -1,1 -3,2 -5,3 30,28 76,12 88,-22 6,-15 6,-26 3,-41zm-6 4c-8,-30 -37,-39 -61,-27 -9,4 -16,12 -22,21 -13,21 -13,46 3,62 -1,1 -3,2 -5,3 -28,-28 -11,-78 24,-93 9,-4 16,-5 29,-4 25,7 33,19 38,34 -2,1 -5,3 -6,4z"/>
            </g>
            <g class="js icon">
                <path class="icon-back" d="M2350 612c-3,-7 -11,-17 -19,-23 -9,-8 -21,-13 -37,-10 -29,5 -36,39 -25,63 11,24 37,38 58,31 22,-8 35,-30 23,-61z"/>
                <path class="logo" d="M2315 663c-1,0 -4,-1 -5,-2l-8 -5c-1,0 -1,-1 0,-1 1,0 2,0 3,-1 0,-1 1,-1 1,0l9 5c0,0 0,0 1,0l22 -16c0,0 0,0 0,-1l-5 -27c0,0 0,0 0,-1l-28 -19c0,0 0,0 0,0l-21 15c0,0 0,1 0,1l3 31c0,1 0,1 0,1l7 4c4,2 6,0 6,-2l-4 -31c0,0 0,0 1,0l3 0c0,0 1,0 1,0l4 31c0,4 -3,7 -7,7 -2,0 -3,0 -6,-1l-7 -4c-1,-1 -2,-3 -2,-5l-4 -31c0,-2 1,-4 3,-4l20 -15c2,-1 4,-1 6,0l27 19c2,1 3,2 3,4l5 27c0,2 -1,4 -3,5l-22 16c-1,0 -2,0 -3,0l0 0zm5 -21c-11,0 -14,-6 -14,-10 0,0 0,0 0,0l4 0c0,0 0,0 0,0 1,3 4,6 10,6 6,0 6,0 6,-3 0,-2 1,-4 -7,-5 -7,0 -13,-3 -13,-8 0,-5 1,-9 8,-9 8,0 14,4 15,10 0,1 -1,1 -1,1 0,0 0,0 0,0l-3 0c-1,0 -1,0 -1,0 -1,-4 -5,-7 -10,-7 -6,0 -4,3 -4,4 0,2 4,4 11,5 8,1 10,3 10,9 0,5 -3,7 -11,7l0 0z"/>
                <path class="outer-circle" d="M2312 570c0,2 0,-1 0,1 23,7 40,26 47,46 5,16 4,34 -4,47 -6,10 -15,16 -25,18 0,2 0,0 0,2 47,-13 44,-83 -5,-109 -5,-3 -10,-4 -13,-5zm0 1c-29,-7 -50,11 -56,35 -2,8 -2,18 0,28 2,7 7,18 14,26 3,4 8,8 11,10 7,6 14,10 22,12 9,3 19,3 27,0 0,2 0,0 0,2 -51,13 -96,-50 -68,-95 12,-20 31,-21 37,-21 5,0 8,1 13,2 0,2 0,-1 0,1z"/>
                <path class="outer-circle" d="M2312 579c0,2 1,3 1,5 42,14 49,66 19,82 -2,1 -4,2 -6,2 0,2 1,4 1,5 38,-11 36,-68 -4,-90 -5,-2 -8,-3 -11,-4zm1 5c-38,-10 -56,31 -37,62 11,18 32,27 50,22 0,2 1,4 1,5 -42,11 -79,-41 -57,-78 11,-16 26,-17 32,-17 3,0 6,0 10,1 0,2 1,3 1,5z"/>
            </g>
            <g class="r-language icon">
                <path class="icon-back" d="M1882 799c-1,-25 -15,-43 -31,-43 -17,-1 -34,12 -41,39 -6,27 14,50 35,50 21,-1 38,-21 37,-46z"/>
                <path class="logo-circle" d="M1834 814c-14,-10 -20,-28 -13,-40 6,-12 24,-14 38,-5 14,10 20,28 14,40 -7,12 -24,15 -39,5zm24 -33c-11,-8 -23,-7 -28,2 -5,8 0,21 11,28 11,7 22,8 28,-2 5,-11 0,-21 -11,-28z"/>
                <path class="logo-letter" d="M1854 813c0,0 1,2 1,3 1,0 1,1 1,2 0,1 0,1 0,1l-1 18 -10 -7 1 -14c0,0 1,-3 0,-4 0,-1 0,-1 -1,-2 0,0 -2,-1 -2,-1l-8 14 -9 -6 21 -37 17 12c0,0 8,6 3,16 -5,9 -13,5 -13,5zm3 -15l-6 -4 -3 7 5 3c0,0 3,2 4,-1 2,-4 0,-5 0,-5z"/>
                <path class="outer-circle light" d="M1901 804c-2,57 -55,85 -90,49 -18,-18 -24,-47 -17,-74 19,-58 75,-59 99,-16 4,9 9,23 8,41zm1 0l0 0c1,-29 -16,-71 -57,-71 -59,6 -71,92 -29,125 36,29 83,-1 86,-54z"/>
                <path class="outer-circle light" d="M1897 804c-3,53 -51,79 -84,45 -17,-18 -23,-47 -14,-73 21,-53 75,-48 93,-5 1,5 6,17 5,33zm1 0l0 0c1,-28 -14,-67 -53,-67 -55,5 -67,83 -29,116 34,29 79,1 82,-49z"/>
                <path class="outer-circle light" d="M1893 804c-3,48 -48,72 -78,41 -17,-18 -21,-49 -10,-73 23,-45 72,-34 85,7 2,8 3,16 3,25zm1 0l0 0c1,-26 -13,-62 -49,-62 -50,4 -62,77 -27,107 31,27 73,2 76,-45z"/>
                <path class="outer-circle" d="M1888 804c-2,44 -44,66 -71,37 -28,-31 -12,-90 26,-93 26,-2 47,24 45,56zm1 0l0 0c2,-31 -17,-56 -41,-57 -42,-2 -63,61 -31,95 27,29 70,7 72,-38z"/>
                <path class="outer-circle" d="M1881 807c-2,14 -12,38 -38,38 -39,-4 -45,-62 -16,-83 26,-19 58,8 54,45zm3 -2l0 0c2,-25 -13,-52 -40,-52 -28,3 -37,30 -38,45 0,0 0,0 0,0 0,0 0,0 0,0 0,0 0,0 0,0 0,0 0,0 0,0 0,0 0,0 0,0 0,0 0,0 0,0 0,0 0,0 0,0 0,0 0,0 0,0 0,45 39,64 63,41 8,-8 14,-21 15,-34z"/>
            </g>
            <g class="ethereum icon">
                <path class="icon-back" d="M2335 1089c-18,37 -72,55 -86,19 0,0 0,0 0,-1 -9,-26 13,-68 57,-70 8,0 14,2 19,5 9,6 19,17 12,41 0,1 -1,1 -1,2 0,1 -1,2 -1,3 0,0 0,1 0,1z"/>
                <polygon class="logo-part-1" points="2298,1074 2271,1084 2305,1042 "/>
                <polygon class="logo-part-2" points="2317,1083 2305,1042 2298,1074 "/>
                <polygon class="logo-part-3" points="2317,1083 2298,1074 2290,1098 "/>
                <polygon class="logo-part-4" points="2313,1092 2287,1104 2282,1121 "/>
                <polygon class="logo-part-5" points="2270,1092 2287,1104 2282,1121 "/>
                <polygon class="logo-part-6" points="2290,1098 2271,1084 2298,1074 "/>
                <path class="outer-circle light" d="M2269 1152c0,0 0,-1 0,-1 0,0 0,0 0,0 0,0 0,0 0,0 0,0 0,0 0,0 0,0 0,0 0,0 0,0 0,0 0,0 0,0 0,0 0,0 0,0 0,0 0,0 0,0 0,0 0,0 -1,0 -3,0 -4,0 0,0 -1,1 -1,1 2,0 3,0 5,0 0,0 0,0 0,0 0,0 0,0 0,0 0,0 0,0 0,0 0,0 0,0 0,0 0,0 0,0 0,0 0,0 0,0 0,0 0,0 0,0 0,0 0,0 0,0 0,0zm-6 0l0 0 1 -1c-4,-1 -7,-1 -10,-2 0,0 -1,1 -1,1 4,1 7,1 10,2zm42 -9l0 0c0,0 0,0 0,0 0,0 0,-1 0,-1l0 0c-4,2 -8,4 -12,5 0,0 0,1 0,1 2,-1 6,-2 12,-5zm6 -3l0 0c0,0 0,0 0,0 0,0 0,-1 0,-1 0,0 0,0 0,0l0 0c-2,1 -3,2 -5,3 0,0 0,0 0,1 1,-1 3,-2 5,-3zm-76 0l0 0 1 -1c-1,-1 -2,-2 -3,-3 0,0 0,0 -1,1 1,0 2,1 3,3zm-3 -4l0 0 1 -1c-3,-2 -4,-5 -6,-8 0,0 -1,0 -1,1 2,3 4,5 6,8zm113 -24l0 0c0,0 0,0 0,0 0,0 0,-1 -1,-1l0 1c-3,3 -6,6 -9,10 0,0 0,0 0,0 1,-1 5,-5 10,-10zm4 -6l0 0c0,0 0,0 0,0 0,0 0,0 0,0l-1 0c-1,2 -2,3 -3,4 0,1 1,1 1,1 0,-1 2,-2 3,-5zm-130 0l0 0 1 -1c0,-2 0,-3 0,-5 -1,0 -1,1 -1,1 0,1 0,3 0,5zm0 -6l0 0 1 -1 0 0c0,-4 0,-8 0,-12 0,0 0,0 -1,0 0,6 0,10 0,13zm143 -20l0 0 1 0c1,-4 1,-4 3,-13l-1 0 0 1c0,4 -1,8 -3,12zm3 -14l0 0 1 0c1,-2 1,-3 1,-5 0,0 -1,0 -1,0 0,2 0,3 -1,5zm-133 -10l0 0c0,0 0,0 0,0 -1,0 -1,-1 -1,-1l0 0c-2,3 -3,4 -3,6 0,0 1,0 1,0 0,0 0,0 0,0 0,-1 1,-3 3,-5l0 0zm8 -12l0 0c0,-1 0,-1 1,-1 -1,0 -1,0 -1,-1l-1 1c-4,5 -6,9 -8,11 1,0 1,1 1,1 1,-2 4,-6 8,-11l0 0zm122 -7l0 0 1 -1c-2,-3 -4,-6 -6,-10 -1,1 -1,1 -1,1 2,3 4,6 6,10zm-7 -10l0 0 1 -1c-1,-2 -2,-3 -3,-4 -1,0 -1,1 -1,1 1,1 2,2 3,4zm-87 -7l0 0c0,0 1,0 1,0 -1,-1 -1,-1 -1,-1l0 0c-2,1 -4,2 -5,3 0,0 0,1 0,1 1,-1 3,-2 5,-3zm14 -7l0 0c1,0 1,0 1,0 0,0 0,-1 0,-1l-1 0c-4,2 -8,4 -13,6 0,0 1,1 1,1 1,-1 6,-3 12,-6zm49 -2l0 0 0 -1c-4,-2 -8,-2 -13,-3 0,0 0,1 0,1 5,1 8,1 13,3zm-14 -3l0 0 0 -1c-2,0 -3,0 -5,0 0,0 0,0 0,0 0,0 0,0 0,0 0,0 0,0 0,0 0,0 0,0 0,0 0,0 0,0 0,0 0,0 0,0 0,0 0,0 0,0 0,0 0,0 0,0 0,0l-1 1c0,0 0,0 0,0 0,0 0,0 1,0 0,0 0,0 0,0 0,0 0,0 0,0 0,0 0,0 0,0 0,0 0,0 0,0 0,0 0,0 0,0 0,0 0,0 0,0 2,0 3,0 5,0z"/>
                <path class="outer-circle" d="M2279 1141c0,0 0,0 0,0 0,0 0,-1 0,-1l0 0c-2,0 -3,0 -4,0 -1,0 -1,1 -1,1 1,0 2,0 5,0zm-6 0l0 0c0,0 0,0 1,-1 0,0 0,0 0,0 -5,0 -8,0 -11,-1 -1,0 -1,1 -1,1 4,1 7,1 11,1 0,0 0,0 0,0zm-30 -12l0 0 1 -1c-1,-1 -2,-2 -3,-3 0,0 0,0 -1,0 1,2 2,3 3,4zm74 -3l0 0c0,-1 1,-1 1,-1 0,0 -1,0 -1,0l0 0c-4,3 -8,5 -12,7 0,0 0,1 0,1 2,-1 7,-3 12,-7zm6 -5l0 0c0,0 1,0 1,0 -1,0 -1,-1 -1,-1l0 0c-2,2 -3,3 -5,4 0,0 1,0 1,1 0,-1 2,-2 4,-4zm-82 3l0 0c0,0 0,0 0,0 -2,-3 -4,-6 -5,-10 -1,1 -1,1 -1,1 1,4 3,7 5,10 0,0 0,-1 1,-1zm-9 -34l0 0 1 0c0,0 0,0 0,0 0,-2 0,-4 1,-6 -1,0 -1,0 -2,0 0,2 0,4 0,6zm118 -6l0 0c1,0 1,0 1,0 -1,0 -1,0 -1,0 0,0 0,0 -1,0 0,2 -2,7 -6,13 0,0 1,0 1,0 3,-4 5,-8 6,-13zm0 -1l0 0 1 0c1,-2 1,-4 2,-6 -1,0 -1,0 -1,0 -1,2 -1,4 -2,6zm-112 -12l0 0c0,0 0,0 0,-1 0,0 -1,0 -1,0l0 1c-2,4 -3,8 -4,12 0,0 0,0 0,0 0,0 0,0 1,0l0 0c0,-1 1,-6 4,-12zm21 -30l0 0c1,0 1,0 1,0 -1,0 -1,-1 -1,-1l0 0c-2,2 -3,3 -5,5 0,0 1,0 1,0 1,0 2,-2 4,-4zm93 10l0 0 1 0c-1,-4 -3,-8 -5,-11 0,0 -1,0 -1,1 2,3 4,6 5,10zm-5 -11l0 0 1 -1c-1,-1 -2,-3 -4,-4 0,0 0,1 0,1 1,1 2,2 3,4zm-74 -8l0 0c0,0 0,0 0,0 0,-1 0,-1 0,-1l-1 0c-5,3 -9,6 -12,8 0,1 0,1 1,1 1,-1 6,-5 12,-8zm34 -10l0 0c1,0 1,0 1,0 0,-1 0,-1 0,-1l0 0c-3,0 -5,0 -6,0 0,0 0,1 0,1 1,0 3,0 5,0zm15 1l0 0 0 -1c-4,-1 -8,-1 -13,-1 0,0 0,0 0,0 0,0 0,0 0,1 0,0 0,0 0,0 5,0 9,0 13,1z"/>
                <path class="outer-circle" d="M2335 1089c-6,13 -26,37 -57,39 -40,-3 -40,-52 -9,-77 33,-27 75,-13 70,24 -1,4 -2,10 -4,14zm6 -4l0 0c12,-29 -4,-54 -34,-54 -51,0 -83,63 -56,91 24,27 76,1 90,-37z"/>
            </g>
            <ellipse class="shadow-back" transform="matrix(1.52 -0.0072 0.0072 1.52 2107 1379)" rx="304" ry="6" filter="url(#shadow-blur-big)"/>
            <ellipse class="shadow-front" transform="matrix(1.52 -0.0072 0.0072 1.52 2107 1379)" rx="204" ry="5" filter="url(#shadow-blur-small)"/>
        </g>
</svg>